<svg xmlns="http://www.w3.org/2000/svg" xmlns:xlink="http://www.w3.org/1999/xlink" width="816.379" height="1145.197"><defs><clipPath id="al"><path d="M0 0h612.284v858.893H0Z" transform="translate(-577.356 -160.121)"/></clipPath><clipPath id="a"><path d="M0 858.898h612.283V0H0Z" transform="translate(-612.284 -858.894)"/></clipPath><clipPath id="c"><path d="M0 858.898h612.283V0H0Z" transform="translate(-143.614 -774.742)"/></clipPath><clipPath id="d"><path d="M0 858.898h612.283V0H0Z" transform="translate(-95.165 -795.703)"/></clipPath><clipPath id="e"><path d="M0 858.898h612.283V0H0Z" transform="translate(-85.37 -756.171)"/></clipPath><clipPath id="f"><path d="M0 858.898h612.283V0H0Z" transform="translate(-42.31 -783.325)"/></clipPath><clipPath id="g"><path d="M0 858.898h612.283V0H0Z" transform="translate(-106.197 -777.5)"/></clipPath><clipPath id="h"><path d="M0 858.898h612.283V0H0Z" transform="translate(-140.33 -508.8)"/></clipPath><clipPath id="i"><path d="M0 858.898h612.283V0H0Z" transform="translate(-498.258 -765.262)"/></clipPath><clipPath id="j"><path d="M0 858.898h612.283V0H0Z" transform="translate(-535.393 -523.97)"/></clipPath><clipPath id="k"><path d="M0 0h612.284v858.893H0Z" transform="translate(-117.415 -267.257)"/></clipPath><clipPath id="l"><path d="M0 0h612.284v858.893H0Z" transform="translate(-150.524 -255.546)"/></clipPath><clipPath id="m"><path d="M0 0h612.284v858.893H0Z" transform="translate(-194.846 -254.714)"/></clipPath><clipPath id="n"><path d="M0 0h612.284v858.893H0Z" transform="translate(-224.94 -236.858)"/></clipPath><clipPath id="o"><path d="M0 0h612.284v858.893H0Z" transform="translate(8.12 -220.162)"/></clipPath><clipPath id="p"><path d="M0 0h612.284v858.893H0Z" transform="translate(-638.078 -108.76)"/></clipPath><clipPath id="q"><path d="M0 0h612.284v858.893H0Z" transform="translate(-540.497 -156.339)"/></clipPath><clipPath id="s"><path d="M0 0h612.284v858.893H0Z" transform="translate(-601.877 -103.69)"/></clipPath><clipPath id="u"><path d="M0 0h612.284v858.893H0Z" transform="translate(-605.735 -132.56)"/></clipPath><clipPath id="v"><path d="M0 0h612.284v858.893H0Z" transform="translate(-440.164 -124.383)"/></clipPath><clipPath id="w"><path d="M0 0h612.284v858.893H0Z" transform="translate(-461.867 -104.28)"/></clipPath><clipPath id="x"><path d="M0 0h612.284v858.893H0Z" transform="translate(-406.232 -48.408)"/></clipPath><clipPath id="y"><path d="M0 0h612.284v858.893H0Z" transform="translate(-339.937 -120.205)"/></clipPath><clipPath id="z"><path d="M0 0h612.284v858.893H0Z" transform="translate(-390.665 -98.583)"/></clipPath><clipPath id="A"><path d="M0 0h612.284v858.893H0Z" transform="translate(-288.875 -124.972)"/></clipPath><clipPath id="B"><path d="M0 0h612.284v858.893H0Z" transform="translate(-237.64 -96.793)"/></clipPath><clipPath id="C"><path d="M0 0h612.284v858.893H0Z" transform="translate(-374.759 -50.927)"/></clipPath><clipPath id="D"><path d="M0 0h612.284v858.893H0Z" transform="translate(-225.013 -59.436)"/></clipPath><clipPath id="E"><path d="M0 0h612.284v858.893H0Z" transform="translate(-575.736 -197.868)"/></clipPath><clipPath id="F"><path d="M0 0h612.284v858.893H0Z" transform="translate(-555.457 -183.59)"/></clipPath><clipPath id="G"><path d="M0 0h612.284v858.893H0Z" transform="translate(-319.68 -126.591)"/></clipPath><clipPath id="H"><path d="M0 0h612.284v858.893H0Z" transform="translate(-214.402 -83.352)"/></clipPath><clipPath id="I"><path d="M0 0h612.284v858.893H0Z" transform="translate(-196.2 -122.175)"/></clipPath><clipPath id="J"><path d="M0 0h612.284v858.893H0Z" transform="translate(-134.605 -168.973)"/></clipPath><clipPath id="K"><path d="M0 0h612.284v858.893H0Z" transform="translate(-21.205 -175.592)"/></clipPath><clipPath id="L"><path d="M0 0h612.284v858.893H0Z" transform="translate(-168.87 -152.98)"/></clipPath><clipPath id="M"><path d="M0 0h612.284v858.893H0Z" transform="translate(-79.518 -219.381)"/></clipPath><clipPath id="N"><path d="M0 0h612.284v858.893H0Z" transform="translate(-15.948 -208.645)"/></clipPath><clipPath id="O"><path d="M0 0h612.284v858.893H0Z" transform="translate(-147.995 -133.048)"/></clipPath><clipPath id="P"><path d="M0 0h612.284v858.893H0Z" transform="translate(-455.79 -133.575)"/></clipPath><clipPath id="Q"><path d="M0 0h612.284v858.893H0Z" transform="translate(-484.844 -93.881)"/></clipPath><clipPath id="R"><path d="M0 0h612.284v858.893H0Z" transform="translate(-482.636 -166.765)"/></clipPath><clipPath id="S"><path d="M0 0h612.284v858.893H0Z" transform="translate(-534.719 -115.122)"/></clipPath><clipPath id="T"><path d="M0 0h612.284v858.893H0Z" transform="translate(-477.837 -50.927)"/></clipPath><clipPath id="U"><path d="M0 0h612.284v858.893H0Z" transform="translate(-506.164 -170.495)"/></clipPath><clipPath id="W"><path d="M0 0h612.284v858.893H0Z" transform="translate(-548.913 -172.114)"/></clipPath><clipPath id="X"><path d="M0 0h612.284v858.893H0Z" transform="translate(-578.975 -127.933)"/></clipPath><clipPath id="Y"><path d="M0 0h612.284v858.893H0Z" transform="translate(-532.506 -173.394)"/></clipPath><clipPath id="aa"><path d="M0 0h612.284v858.893H0Z" transform="translate(-163.335 -136.674)"/></clipPath><clipPath id="ab"><path d="M0 0h612.284v858.893H0Z" transform="translate(-134.016 -149.533)"/></clipPath><clipPath id="ac"><path d="M0 0h612.284v858.893H0Z" transform="translate(-527.146 -138.023)"/></clipPath><clipPath id="ad"><path d="M0 0h612.284v858.893H0Z" transform="translate(-501.907 -94.585)"/></clipPath><clipPath id="ae"><path d="M0 0h612.284v858.893H0Z" transform="translate(-466.049 -149.31)"/></clipPath><clipPath id="af"><path d="M0 0h612.284v858.893H0Z" transform="translate(-391.004 -47.819)"/></clipPath><clipPath id="ag"><path d="M0 0h612.284v858.893H0Z" transform="translate(-378.64 -116.967)"/></clipPath><clipPath id="ah"><path d="M0 0h612.284v858.893H0Z" transform="translate(-378.64 -96.793)"/></clipPath><clipPath id="ai"><path d="M0 0h612.284v858.893H0Z" transform="translate(-469.21 -126.591)"/></clipPath><clipPath id="aj"><path d="M0 0h612.284v858.893H0Z" transform="translate(-354.258 -59.436)"/></clipPath><clipPath id="ak"><path d="M0 0h612.284v858.893H0Z" transform="translate(-300.268 -134.56)"/></clipPath><clipPath id="b"><path d="M0 858.898h612.283V0H0Z" transform="translate(-612.284 -334.363)"/></clipPath><clipPath id="am"><path d="M0 0h612.284v858.893H0Z" transform="translate(-607.355 -200.61)"/></clipPath><clipPath id="an"><path d="M0 0h612.284v858.893H0Z" transform="translate(-548.913 -118.586)"/></clipPath><clipPath id="ao"><path d="M0 0h612.284v858.893H0Z" transform="translate(-504.287 -115.122)"/></clipPath><clipPath id="ap"><path d="M0 0h612.284v858.893H0Z" transform="translate(-423.452 -108.107)"/></clipPath><clipPath id="aq"><path d="M0 0h612.284v858.893H0Z" transform="translate(-475.629 -106.487)"/></clipPath><clipPath id="ar"><path d="M0 0h612.284v858.893H0Z" transform="translate(-469.21 -50.927)"/></clipPath><clipPath id="as"><path d="M0 0h612.284v858.893H0Z" transform="translate(-319.092 -148.982)"/></clipPath><clipPath id="at"><path d="M0 0h612.284v858.893H0Z" transform="translate(-512.296 -96.375)"/></clipPath><clipPath id="au"><path d="M0 0h612.284v858.893H0Z" transform="translate(-434.648 -46.2)"/></clipPath><clipPath id="av"><path d="M0 0h612.284v858.893H0Z" transform="translate(-205.326 -104.28)"/></clipPath><clipPath id="aw"><path d="M0 0h612.284v858.893H0Z" transform="translate(-156.06 -158.488)"/></clipPath><clipPath id="ax"><path d="M0 0h612.284v858.893H0Z" transform="translate(-62.317 -225.911)"/></clipPath><clipPath id="ay"><path d="M0 0h612.284v858.893H0Z" transform="translate(-82.319 -196.762)"/></clipPath><clipPath id="az"><path d="M0 0h612.284v858.893H0Z" transform="translate(-176.414 -115.348)"/></clipPath><clipPath id="aA"><path d="M0 0h612.284v858.893H0Z" transform="translate(-293.199 -113.503)"/></clipPath><clipPath id="aB"><path d="M0 0h612.284v858.893H0Z" transform="translate(-262.313 -109.309)"/></clipPath><clipPath id="aC"><path d="M0 0h612.284v858.893H0Z" transform="translate(-513.287 -198.638)"/></clipPath><clipPath id="aD"><path d="M0 0h612.284v858.893H0Z" transform="translate(-503.038 -282.164)"/></clipPath><clipPath id="aE"><path d="M0 0h612.284v858.893H0Z" transform="translate(-468.134 -288.67)"/></clipPath><clipPath id="aF"><path d="M0 0h612.284v858.893H0Z" transform="translate(-442.03 -276.196)"/></clipPath><clipPath id="aG"><path d="M0 0h612.284v858.893H0Z" transform="translate(-430.21 -257.893)"/></clipPath><clipPath id="aH"><path d="M0 0h612.284v858.893H0Z" transform="translate(-488.597 -201.377)"/></clipPath><clipPath id="aJ"><path d="M462.457 196.135h64.481v-23.829h-64.481z" transform="translate(-526.508 -185.439)"/></clipPath><clipPath id="aI"><path d="M0 0h612.284v858.893H0Z" transform="matrix(1.33333 0 0 -1.33333 -11.339 1133.859)"/></clipPath><clipPath id="aK"><path d="M0 0h612.284v858.893H0Z" transform="translate(-88.84 -302.66)"/></clipPath><clipPath id="aL"><path d="M0 0h612.284v858.893H0Z" transform="translate(-42.797 -296.767)"/></clipPath><clipPath id="aM"><path d="M0 0h612.284v858.893H0Z" transform="translate(-5.729 -266.117)"/></clipPath><clipPath id="aN"><path d="M0 0h612.284v858.893H0Z" transform="translate(-.1 -268.281)"/></clipPath><clipPath id="aO"><path d="M0 0h612.284v858.893H0Z" transform="translate(-119.227 -225.58)"/></clipPath><clipPath id="aP"><path d="M0 0h612.284v858.893H0Z" transform="translate(-500.502 8.766)"/></clipPath><clipPath id="aQ"><path d="M0 0h612.284v858.893H0Z" transform="translate(-568.022 -61.849)"/></clipPath><clipPath id="aR"><path d="M0 0h612.284v858.893H0Z" transform="translate(-517.651 -69.692)"/></clipPath><clipPath id="aS"><path d="M0 0h612.284v858.893H0Z" transform="translate(-580.505 -74.81)"/></clipPath><clipPath id="aU"><path d="M495.271 66.446h41.455V-8.767h-41.455z" transform="translate(-495.27 -1.704)"/></clipPath><clipPath id="aT"><path d="M0 0h612.284v858.893H0Z" transform="matrix(1.33333 0 0 -1.33333 -11.339 1133.859)"/></clipPath><clipPath id="aW"><path d="M558.512 73.093h40.935V-2.94h-40.935z" transform="translate(-573.983 -73.093)"/></clipPath><clipPath id="aV"><path d="M0 0h612.284v858.893H0Z" transform="matrix(1.33333 0 0 -1.33333 -11.339 1133.859)"/></clipPath><clipPath id="aX"><path d="M0 0h612.284v858.893H0Z" transform="translate(-523.502 -59.96)"/></clipPath><clipPath id="aY"><path d="M0 0h612.284v858.893H0Z" transform="translate(-559.508 -93.443)"/></clipPath><clipPath id="ba"><path d="M527.964 73.965h42.92v-78.72h-42.92z" transform="translate(-527.964 -15.307)"/></clipPath><clipPath id="aZ"><path d="M0 0h612.284v858.893H0Z" transform="matrix(1.33333 0 0 -1.33333 -11.339 1133.859)"/></clipPath><clipPath id="bc"><path d="M122.607 94.621h55.852V83.808h-55.852z" transform="translate(-178.46 -89.214)"/></clipPath><clipPath id="bb"><path d="M0 0h612.284v858.893H0Z" transform="matrix(1.33333 0 0 -1.33333 -11.339 1133.859)"/></clipPath><clipPath id="bd"><path d="M0 0h612.284v858.893H0Z" transform="translate(-135.881 -113.593)"/></clipPath><clipPath id="be"><path d="M0 0h612.284v858.893H0Z" transform="translate(-136.866 -111.609)"/></clipPath><clipPath id="bf"><path d="M0 0h612.284v858.893H0Z" transform="translate(-128.105 -110.22)"/></clipPath><clipPath id="bg"><path d="M0 0h612.284v858.893H0Z" transform="translate(-121.742 -107.565)"/></clipPath><clipPath id="bi"><path d="M139.065 120.701h22.936v-10.132h-22.936z" transform="translate(-139.261 -113.951)"/></clipPath><clipPath id="bh"><path d="M0 0h612.284v858.893H0Z" transform="matrix(1.33333 0 0 -1.33333 -11.339 1133.859)"/></clipPath><clipPath id="bk"><path d="M129.16 113.535h6.32v-4.046h-6.32z" transform="translate(-129.161 -110.435)"/></clipPath><clipPath id="bj"><path d="M0 0h612.284v858.893H0Z" transform="matrix(1.33333 0 0 -1.33333 -11.339 1133.859)"/></clipPath><clipPath id="bm"><path d="M122.345 110.44h5.355v-3.979h-5.355z" transform="translate(-122.346 -107.308)"/></clipPath><clipPath id="bl"><path d="M0 0h612.284v858.893H0Z" transform="matrix(1.33333 0 0 -1.33333 -11.339 1133.859)"/></clipPath><clipPath id="bn"><path d="M0 0h612.284v858.893H0Z" transform="translate(-119.782 6.854)"/></clipPath><clipPath id="bo"><path d="M0 0h612.284v858.893H0Z" transform="translate(-67.357 -142.807)"/></clipPath><clipPath id="bp"><path d="M0 0h612.284v858.893H0Z" transform="translate(-39.955 -75.81)"/></clipPath><clipPath id="bq"><path d="M0 0h612.284v858.893H0Z" transform="translate(-58.386 -114.525)"/></clipPath><clipPath id="br"><path d="M0 0h612.284v858.893H0Z" transform="translate(-34.476 -54.251)"/></clipPath><clipPath id="bs"><path d="M0 0h612.284v858.893H0Z" transform="translate(-89.64 -80.729)"/></clipPath><path id="r" d="M0 0a2.208 2.208 0 1 0-4.416 0A2.208 2.208 0 0 0 0 0"/><path id="t" d="M0 0a2.207 2.207 0 1 0-4.415-.001A2.207 2.207 0 0 0 0 0"/><path id="V" d="M0 0a1.62 1.62 0 1 0-3.238 0A1.62 1.62 0 0 0 0 0"/><path id="Z" d="M0 0a1.619 1.619 0 1 0-3.237 0A1.619 1.619 0 0 0 0 0"/></defs><path d="M0 1145.197h816.377V.003H0z" fill="#2895e1"/><path d="M0 0v-195.69c-33.46.94-73.471 9-78.37 30.73-3.72 16.5 22.649 22.4 25.099 38.02 2.681 17.06-13.109 21.5-27.24 25.82-14 4.29-70.55 8.68-77.309 24.39-3.861 8.97 13.12 15.57 14.42 24.85-32.38 26.43-124.861-39.8-142.821 3.57-3.139 7.58-24.329 23.83-32.969 20.7-16.46.68-93.7-9.1-93.13-32.99.39-15.89 46.35-18.42 24.58-32.71-8.45-5.54-31.61-1.67-41.46-2.14-19.31-.91-47.35-.73-65.34-8.28-15.88-6.66-5.36-2.91-7.231-15.71-1.609-10.98-1.089-11.94-12.739-19.16-13.13-8.13-27.78-10.56-42.72-13.51-23.49-4.64-28.88-6.86-42.3-23.2-3.61-4.4-7.94-7.68-12.75-10.04V0Z" transform="matrix(1.33333 0 0 -1.33333 816.379 .006)" clip-path="url(#a)" fill="#2fa9ed"/><g fill="#186bb7"><path d="M0 0v-299.76h-612.28V85.63c8.55-.18 17.1-.14 25.66-.06-2.81 3.701-4.77 8.05-5.57 12.63-.28 1.53-.24 3.47 1.14 4.2 1.62.871 3.44-.75 4.47-2.28 2.21-3.3 3.83-6.99 4.76-10.859.299-1.231.59-2.561 1.2-3.631l2.76.02c.02 4.741-1.82 9.39-1.37 14.11.03.32.08.65.28.91.42.54 1.35.38 1.81-.13.46-.519.579-1.25.68-1.93l1.28-8.69c.159-1.12.44-2.399 1.46-2.909.97-.49 2.21.05 2.84.939.64.88.8 2.01.88 3.1.57 7.73-1.98 15.6-.33 23.17.48 2.18 1.82 4.66 4.04 4.63 1.47-.02 2.66-1.17 3.51-2.36 2.91-4.08 3.74-9.57 2.17-14.33-.55-1.66-1.37-3.23-1.87-4.91-.62-2.09-.73-4.319-.31-6.46.11-.6.31-1.25.83-1.59 1.02-.66 2.28.361 3.06 1.29l3.81 4.571c2.49 2.979 7.17 5.509 8.89.109 1.1-3.46-1.17-6.71-4.45-9.409l6.93.01c2.46.009 20.94-1.491 21.79.049l-11.79-21.49c-.93-1.7-1.93-3.47-3.56-4.51-1.38-.889-3.06-1.15-4.69-1.389L-566 54.91c17.18-9.3 35.39-16.71 54.18-22.04 3.19-.91 6.62-1.89 8.7-4.479 1.44-1.79 2.02-4.101 2.559-6.33l8.771-36.271c.6-2.46 1.22-4.97 2.61-7.08 2.15-3.239 5.8-5.08 9.3-6.779l9.76-4.761c2.63 2.17 5.04 4.57 7.059 7.31-.629.451-1.269.9-1.949 1.32-4.65 2.87-10.53 4.24-16.011 5.971-2.019.649-4.529 1.809-4.5 3 .031 1.019 2.011 1.149 3.731.939 4.81-.58 10.019-2.6 13.78-5.34 1.83-1.34 3.31-2.809 5.13-4.149.22-.171.46-.33.7-.491.57.871 1.11 1.77 1.6 2.71-2.67 2.23-5.5 4.04-8.15 6.331-5.64 4.87-10.22 11.929-12.1 18.669-.67 2.4-.77 5.23 1.09 5.44 2.17.25 4.719-3.119 6.23-5.88 4.11-7.479 7.61-15.6 13.63-21.71.14-.14.29-.279.44-.42.39.96.76 1.95 1.06 2.99l-1.16 2.8c-1.41 3.28-2.96 6.51-4.8 9.45-2.33 3.69-5.08 6.85-7.38 10.571-4.74 7.649-7.29 17.569-6.75 26.219.199 3.1 1.25 6.5 3.56 6.161 2.7-.401 4.36-5.25 5.02-9.04 1.81-10.271 2.64-21.101 7.3-30.34 1.64-3.241 3.67-6.12 5.54-9.151.95 6.981 1.22 14.26 5.34 19.09 2.92 3.42 7.12 4.67 11.14 5.68-1.12 1.29-2.1 2.7-2.86 4.23-.55 1.111-1.01 2.321-.1 3.68.98 1.44 2.79 2.03 4.48 1.641 2.71-.611 4.47-2.941 6.23-5.011.89-1.05 2.509-2.119 3.45-.94.26.33.37.77.34 1.19-.23 3.9-2.741 7.131-4.85 10.37-2.01 3.07-3.79 6.74-2.87 10.29.52 2.021 2.479 4.07 4.65 2.641.69-.451 1.18-1.151 1.44-1.931a136.74 136.74 0 0 0 4.889-19.33c.161-.859.321-1.779 1.051-2.359.34-.271.81-.401 1.23-.271.71.21.87.9.98 1.521.3 1.87.44 3.759.4 5.649-.02 1.04-.07 2.19.71 2.971.47.46 1.21.599 1.74.21.48-.351.47-.88.45-1.38l-.24-7.191a1.61 1.61 0 0 1 .5-1.25l2.62.481c.019.05.05.09.07.149 0 .01.01.03.01.04 1.85 5.39.53 11.611 3.05 16.72 1.08 2.19 3.7 4.27 5.86 2.36.38-.33.66-.75.88-1.2 2.13-4.399 1.23-9.54-.43-14.08l-.93-2.55 11.09 1.561c1.68.21 3.44.389 5-.37 2.08-1.021 3.37-3.511 4.32-5.941 4.73-12.01 5.639-27.41 14.84-34.9 3.23-2.619 7.14-3.88 10.28-6.64 4.29-3.769 6.63-9.83 8.8-15.63l18.78-50.12h48.13l11.25 22.26c2.93 5.801 6.1 11.86 11.89 15.62 4.24 2.76 9.509 4.03 13.86 6.65 12.43 7.48 13.649 22.89 20.03 34.9 1.289 2.431 3.029 4.91 5.84 5.931 2.1.769 4.48.58 6.739.37l14.21-1.471-.889 2.471c-1.661 4.529-2.56 9.679-.44 14.08.22.449.51.869.88 1.199 2.16 1.91 4.779-.17 5.859-2.37 2.481-5 1.261-11.079 2.951-16.39l3.19-.42c.08.2.12.42.109.68l-.239 7.19c-.011.491-.02 1.031.449 1.37.54.39 1.271.26 1.741-.209.78-.781.74-1.92.71-2.971-.031-1.89.1-3.779.41-5.64.05-.3.11-.61.24-.88l2.04-.29c.649.58.819 1.45.97 2.281a137.23 137.23 0 0 0 4.9 19.33c.26.779.75 1.479 1.44 1.929 2.16 1.43 4.129-.62 4.64-2.639.92-3.561-.86-7.221-2.87-10.301-2.11-3.23-4.61-6.46-4.851-10.36-.009-.299.031-.6.151-.87l2.519-.38a5.67 5.67 0 0 1 1.13.991c1.75 2.069 3.511 4.399 6.221 5.019 1.7.39 3.51-.2 4.479-1.65.911-1.36.451-2.569-.099-3.68-.41-.809-.891-1.58-1.401-2.34l10.42-1.83c5.511-1.019 11.321-2.25 15.33-5.74 7.311-6.34 5.63-16.95 8.901-25.529 2.64-6.921 8.269-12.101 15.059-16.37l1.34 39.109c.141 3.82.361 7.88 2.391 11 2.269 3.48 6.24 4.98 9.78 6.83 10.07 5.25 18.1 14.88 22.09 26.2-1.04.771-2.051 1.56-2.96 2.41-1.9 1.8-3.33 3.741-5.261 5.531-4 3.71-9.5 6.189-14.529 8.96-1.86 1.019-4.101 2.649-3.84 3.809.23 1 2.19.74 3.84.21 4.6-1.51 9.33-4.51 12.48-7.93 1.54-1.66 2.709-3.39 4.23-5.06 1.2-1.319 2.609-2.59 4.08-3.81.85-.71 1.73-1.41 2.63-2.089l.359 1.219c-1.279 2.14-2.63 4.22-4.139 6.12-2.241 2.83-4.77 5.22-7.01 8.08-4.59 5.88-7.71 13.69-8.25 20.661-.191 2.5.26 5.29 2.13 5.129 2.17-.169 4.019-3.969 4.97-6.969 2.58-8.141 4.44-16.781 9.15-23.95.939-1.411 1.96-2.721 3-4.021-.431 3.101-.96 6.181-1.62 9.221-.75 3.5-1.64 6.969-2.88 10.199-1.561 4.08-3.65 7.71-5.181 11.811C-95.17 70.94-95.75 81.16-93.54 89.55c.79 3 2.479 6.14 4.689 5.35 2.561-.91 3.25-5.99 3.17-9.839-.219-10.3-1.479-20.96 1.181-30.84-.141 3.17-.09 6.34.34 9.42.67 4.92 2.229 9.449 2.849 14.389 1.3 10.27-1.54 20.76-3.279 31.04-.64 3.79-.7 8.92 1.699 10.201 2.071 1.099 4.201-1.771 5.42-4.621 3.41-7.97 4.321-18.17 2.431-26.96-.931-4.28-2.46-8.179-3.42-12.44-.75-3.38-1.13-6.939-1.36-10.51-.21-3.11-.3-6.25-.27-9.4.84 1.44 1.67 2.91 2.39 4.46 3.62 7.77 4.21 16.591 5.57 25.02.5 3.111 1.779 7.14 3.9 7.63 1.83.42 2.68-2.269 2.85-4.769.489-6.971-1.46-15.16-5.15-21.641-1.79-3.16-3.95-5.89-5.76-9.019-1.38-2.38-2.54-4.971-3.601-7.601l.071-1.08a70.53 70.53 0 0 1 3.16 3.32c1.269 1.42 2.49 2.88 3.49 4.361 1.26 1.879 2.159 3.759 3.43 5.629 2.63 3.84 6.87 7.491 11.21 9.65 1.55.78 3.45 1.32 3.82.36.43-1.11-1.551-3.05-3.24-4.33-4.58-3.47-9.66-6.729-13.08-10.979-1.64-2.051-2.77-4.181-4.401-6.231-1.21-1.53-2.649-2.97-4.179-4.33a103.8 103.8 0 0 1 .62-5.01c1.45 5.361 3.67 10.06 8.29 12.08 3.389 1.48 7.2.951 10.83 1.47 12.57 1.811 16.41 14.25 17.93 25.931 1.02 7.789 7.41 30.609 14.21 11.829 1.629-4.489 1.259-9.489 1.89-14.26 2.22-16.53 16.47-29.89 15.659-46.569-.34-6.921-3.269-14.191-.59-20.481C-9.46 7.721-7 5.45-4.511 3.44-3.04 2.25-1.53 1.12 0 0" transform="matrix(1.33333 0 0 -1.33333 816.379 699.38)" clip-path="url(#b)"/><path d="M0 0c-3.236 1.604-5.595 4.823-6.03 8.41 2.427-.207 4.746-1.101 6.684-2.577a12.83 12.83 0 0 0 3.598-4.345c2.706-.022 5.36.486 7.999 1.19-.142.802-.309 1.6-.531 2.384 2.093.54 4.183 1.172 6.072 2.221s3.583 2.55 4.546 4.484c2.53-1.514 4.67-3.639 6.272-6.113 3.981-.314 7.886-1.626 11.223-3.823C41.178.946 42.431-.076 43.747-1c.901-.633.886-1.993-.036-2.595-1.524-.996-3.233-1.682-5.027-2.182a42.51 42.51 0 0 0-7.253-1.377c-.405-.364-.81-.728-1.261-1.034-1.152-.782-2.522-1.318-3.912-1.243-.301.016-.621.07-.843.274-.445.407-.265 1.136-.029 1.692.034.08.076.156.111.236a30.42 30.42 0 0 0-1.995.224c-.22.033-.436.09-.655.128-.919-.633-1.853-1.246-2.881-1.675-1.285-.537-2.733-.789-4.081-.438-.292.076-.594.192-.772.436-.354.489-.032 1.166.309 1.664a23.38 23.38 0 0 0 1.102 1.476L12.281-4.3c-1.572-1.157-3.309-2.071-5.152-2.713-.647-.223-1.449-.381-1.945.091-.467.444-.394 1.197-.255 1.827.187.851.45 1.682.747 2.501a26.72 26.72 0 0 1-1.831.369C2.932-3.646 1.755-4.9.364-5.858A12.82 12.82 0 0 0-6.44-8.101C-5.827-4.54-3.312-1.442 0 0" transform="matrix(1.33333 0 0 -1.33333 191.485 112.208)" clip-path="url(#c)"/><path d="M0 0c-3.353 1.345-5.957 4.368-6.674 7.91A12.83 12.83 0 0 0 .193 5.866a12.823 12.823 0 0 0 3.928-4.048c2.699.191 5.305.907 7.881 1.816a24.018 24.018 0 0 1-.717 2.335c2.044.702 4.077 1.497 5.879 2.691 1.801 1.194 3.371 2.824 4.179 4.828 2.64-1.31 4.942-3.26 6.733-5.601 3.994.001 7.989-1 11.489-2.928 1.41-.776 2.74-1.696 4.125-2.514.948-.56 1.039-1.917.168-2.59-1.441-1.113-3.091-1.931-4.84-2.571a42.434 42.434 0 0 0-7.122-1.942c-.375-.395-.75-.79-1.176-1.131-1.087-.87-2.409-1.512-3.802-1.547-.301-.007-.625.021-.862.207-.475.372-.353 1.112-.162 1.684.027.083.064.163.092.245-.669.001-1.338.02-2.006.066-.222.015-.441.056-.663.076-.866-.704-1.75-1.388-2.74-1.897-1.239-.636-2.663-1.001-4.035-.757-.296.052-.607.145-.803.374-.392.459-.124 1.16.177 1.683.306.532.635 1.052.983 1.558l-4.318.776A19.514 19.514 0 0 0 7.658-6.43c-.627-.273-1.415-.494-1.946-.063-.5.406-.487 1.163-.398 1.801.12.863.317 1.713.548 2.553a25.75 25.75 0 0 1-1.854.223C3.209-3.404 2.135-4.746.824-5.812a12.837 12.837 0 0 0-6.607-2.771C-5.452-4.984-3.189-1.698 0 0" transform="matrix(1.33333 0 0 -1.33333 126.887 84.26)" clip-path="url(#d)"/><path d="M0 0c-2.754 1.272-4.807 3.919-5.256 6.919 2.043-.117 4.01-.813 5.671-2.008 1.291-.941 2.357-2.159 3.119-3.563 2.272.043 4.487.531 6.687 1.183A20.59 20.59 0 0 1 9.72 4.52c1.744.501 3.483 1.08 5.045 2.004s2.948 2.223 3.712 3.869c2.158-1.213 4.003-2.947 5.405-4.986 3.349-.172 6.657-1.182 9.508-2.949L36.741.172c.77-.51.789-1.652.03-2.179-1.257-.871-2.676-1.487-4.17-1.948a35.71 35.71 0 0 0-6.056-1.323l-1.034-.897c-.949-.683-2.086-1.164-3.255-1.134-.253.007-.523.045-.714.211-.382.332-.248.947-.063 1.419l.088.201-1.68.142-.552.092c-.757-.553-1.527-1.089-2.379-1.472-1.067-.481-2.276-.725-3.416-.462-.247.057-.503.147-.658.348-.308.402-.054.978.221 1.403l.892 1.265-3.588.837C9.114-4.332 7.678-5.14 6.146-5.721c-.539-.202-1.208-.354-1.635.031-.402.362-.359.996-.257 1.527.138.719.34 1.423.57 2.117l-1.545.267c-.73-1.22-1.695-2.284-2.838-3.13-1.655-1.203-3.617-1.91-5.659-2.039C-4.786-3.945-2.747-1.287 0 0" transform="matrix(1.33333 0 0 -1.33333 113.827 136.97)" clip-path="url(#e)"/><path d="M0 0c-2.567 1.615-4.264 4.503-4.324 7.537 2.011-.379 3.872-1.322 5.366-2.72C2.202 3.718 3.103 2.374 3.678.883c2.259-.248 4.519-.049 6.783.316a20.15 20.15 0 0 1-.241 2.036c1.794.274 3.593.624 5.26 1.34s3.209 1.826 4.178 3.361c1.985-1.479 3.592-3.436 4.72-5.639 3.3-.599 6.45-2.026 9.052-4.145l3.029-2.696c.699-.605.571-1.74-.25-2.164-1.358-.704-2.844-1.132-4.384-1.397a35.52 35.52 0 0 0-6.176-.535l-1.141-.757c-1.029-.556-2.218-.888-3.373-.707-.25.039-.513.111-.681.3-.337.379-.125.971.119 1.416l.113.188-1.647.356-.537.162c-.821-.451-1.654-.883-2.548-1.154-1.12-.34-2.35-.428-3.447-.02-.237.088-.48.21-.608.43-.254.438.073.976.4 1.363l1.046 1.14-3.45 1.29c-1.411-.833-2.94-1.449-4.534-1.829-.56-.132-1.243-.196-1.617.24-.353.411-.228 1.034-.058 1.548.228.695.519 1.367.836 2.027l-1.499.462A10.75 10.75 0 0 0-.192-4.924a10.77 10.77 0 0 0-5.874-1.297C-5.252-3.298-2.889-.924 0 0" transform="matrix(1.33333 0 0 -1.33333 56.414 100.764)" clip-path="url(#f)"/><path d="M0 0c-.898.46-1.545 1.368-1.654 2.372.678-.067 1.322-.325 1.858-.745C.621 1.3.958.875 1.193.4c.756-.016 1.499.117 2.24.304-.036.225-.083.448-.141.668.587.143 1.173.312 1.706.598s1.01.699 1.286 1.236c.701-.438 1.292-1.03 1.73-1.731 1.117-.102 2.19-.483 3.121-1.109l1.084-.805a.44.44 0 0 0-.02-.726 4.98 4.98 0 0 0-1.412-.59c-.666-.179-1.345-.299-2.032-.359l-.356-.284c-.325-.214-.71-.359-1.098-.333-.084.005-.173.022-.234.08-.123.115-.07.318-.002.472l.032.066-.557.07-.182.038a4.47 4.47 0 0 0-.811-.457c-.361-.146-.767-.211-1.142-.108-.081.023-.165.056-.214.125-.097.138-.005.326.092.464l.314.408-1.181.326a5.48 5.48 0 0 0-1.45-.738c-.182-.06-.406-.101-.543.032-.129.126-.106.336-.065.512a5.72 5.72 0 0 0 .218.696l-.51.109A3.59 3.59 0 0 0 .08-1.638a3.58 3.58 0 0 0-1.909-.602C-1.645-1.247-.931-.391 0 0" transform="matrix(1.33333 0 0 -1.33333 141.596 108.53)" clip-path="url(#g)"/><path d="M0 0c-2.384 2.394-5.17 4.353-8.065 6.095-.659.396-1.335.785-2.08.971-1.607.4-3.293-.202-4.75-.989-.892-.482-1.751-1.039-2.648-1.508-.447 3.028-1.738 6.056-3.697 8.379l.289.258c.678.602 1.384 1.221 2.25 1.489.999.31 2.118.121 3.082.528.502.212.929.574 1.288.984.936 1.076 1.438 2.462 1.409 3.888-.017.695-.111 3.104-1.275 4.234-1.189 1.154-3.456 1.023-4.168 1.001a5.74 5.74 0 0 1-3.804-1.623c-.389-.381-.727-.828-.911-1.341-.353-.985-.103-2.091-.356-3.106-.22-.879-.798-1.619-1.362-2.329l-.556-.697c-1.749.912-3.69 1.466-5.679 1.687.48 1.055 1.104 2.053 1.635 3.088.754 1.474 1.319 3.174.883 4.771-.201.741-.607 1.408-1.017 2.057-1.804 2.856-3.825 5.599-6.271 7.929s-5.336 4.246-8.554 5.271c-1.584.504-3.329.783-4.89.214-.258-.094-.523-.223-.663-.459-.28-.473.076-1.06.429-1.481 2.482-2.951 5.61-5.334 7.907-8.432.68-.917 1.282-1.89 1.852-2.88 1.822-3.163 3.327-6.603 3.861-10.188l-.514-.082c-4.916-.913-9.348-3.634-13.054-6.991-2.572-2.33-4.868-5.012-6.442-8.105s-2.397-6.621-1.983-10.067a19.77 19.77 0 0 1 .362-2.022c-1.089-.113-2.184-.164-3.275-.071-3.171.268-6.14 1.715-9.299 2.096-.605.073-1.227.105-1.813-.06s-1.136-.556-1.358-1.123c-.341-.866.181-1.869.926-2.428.596-.447 1.37-.749 1.679-1.426.338-.742-.008-1.71.476-2.366.302-.411.843-.563 1.349-.621s1.033-.051 1.502-.252c.657-.28 1.086-.915 1.66-1.34.907-.673 2.131-.78 3.243-.579s2.151.674 3.206 1.077a26.15 26.15 0 0 0 3.111.964c.261-2.077.312-4.424-.77-6.464-.287-.541.175-1.161.769-1.013 2.613.654 5.371.597 8.164.392a26.43 26.43 0 0 0-.592-2.786c-.297-1.09-.666-2.171-.755-3.297s.137-2.333.896-3.17c.481-.529 1.155-.892 1.499-1.519.246-.447.291-.971.399-1.469s.312-1.022.751-1.282c.7-.416 1.63.023 2.401-.24.705-.24 1.082-.981 1.585-1.529.63-.686 1.679-1.106 2.508-.682.542.277.877.863.983 1.462s.013 1.216-.119 1.81c-.692 3.107-2.426 5.918-3.006 9.047-.195 1.05-.253 2.117-.252 3.185 2.504-.1 4.973.014 7.325.763 4.305 1.371 7.725 4.636 10.707 8.029 1.885 2.144 3.692 4.431 4.694 7.104.636 1.699.929 3.505 1.176 5.302l.18 1.438c3.452-.509 6.782-1.9 9.864-3.585 1.002-.549 1.988-1.129 2.92-1.788C-1.61-8.105.841-11.18 3.847-13.596c.428-.344 1.023-.688 1.489-.396.233.145.356.412.445.672.534 1.574.216 3.312-.323 4.884C4.362-5.24 2.384-2.393 0 0" transform="matrix(1.33333 0 0 -1.33333 187.106 466.797)" clip-path="url(#h)"/><path d="M0 0c.634-6.221 4.028-11.772 8.639-15.998-.591 3.759 1.007 7.909 2.678 11.327 6.618-4.094 14.446-7.74 21.848-10.139 2.047-2.068 3.749-4.451 5.041-7.059.49-.989 1.137-2.163 2.239-2.205 1.243-.047 2.437 1.797 3.645 1.505 3.559-4.456 5.739-9.855 6.273-15.533.24-2.6.006-5.519-1.877-7.328-1.638-1.575-4.154-1.893-6.394-1.511s-4.33 1.355-6.491 2.06c-3.356 1.094-7.115 1.512-10.354.111s-5.833-5.578-4.986-9.003c.847 1.961 3.145 2.993 5.28 2.911s4.128-1.069 5.945-2.193 3.553-2.414 5.534-3.215 4.631-1.503 6.536-.534c-1.93-1.673-2.415-4.503-2.156-7.043s1.13-4.986 1.413-7.524.527-5.291-1.358-7.014a24.31 24.31 0 0 1 11.536 12.058c2.261 5.211 3.079 10.834 1.407 16.263 4.893 17.644.331 37.88-11.415 51.926 4.306 2.681 9.261 4.682 14.317 5.106-9 7.029-20.065 10.645-31.42 9.448A69.23 69.23 0 0 1-8.43 31.76c-2.7.39-5.46.619-8.147.149s-5.318-1.705-7.04-3.82c-1.625-1.996-.645-5.443.492-7.752s2.885-4.254 4.68-6.099C-12.886 8.522-6.724 4.288 0 0" transform="matrix(1.33333 0 0 -1.33333 664.344 124.848)" clip-path="url(#i)"/><path d="M0 0c-.128.886-.342 1.765-.556 2.644-.391 1.605-.759 3.121-.563 4.607.208 1.586 1.048 3.042 1.937 4.582.983 1.7 1.996 3.458 2.21 5.522.178 1.733-.244 3.394-.65 5-.432 1.697-.839 3.301-.496 4.816.347 1.53 1.42 2.805 2.555 4.154.785.931 1.597 1.896 2.213 3.002 1.657 2.974 1.598 6.534 1.41 8.954l-.234 2.398c-.223 2.078-.432 4.043-.253 6.012.113 1.235.428 2.332.851 3.32a3.91 3.91 0 0 1 3.361 3.068c1.404 6.653.069 13.716-3.668 18.562-4.337 5.623-11.739 8.042-18.678 6.104-5.986-1.673-11.425-6.533-14.419-12.675-.758-1.561-.395-3.435.892-4.6-1.151-1.453-1.966-3.344-2.331-5.523-.356-2.141-.287-4.301-.219-6.391l.054-2.369c.007-2.167-.167-5.323-1.736-7.709-.59-.896-1.367-1.688-2.188-2.528-1.346-1.379-2.74-2.804-3.342-4.774-.598-1.949-.254-3.897.078-5.781.269-1.525.523-2.966.278-4.33-.289-1.616-1.262-3.047-2.294-4.561-1.068-1.57-2.173-3.192-2.58-5.15-.384-1.836-.084-3.638.206-5.378.138-.83.278-1.659.335-2.489.244-3.508-1.049-7.338-3.643-10.784-2.266-3.015-5.171-5.437-8.833-8.147a1.01 1.01 0 0 1-.212-1.412 1.01 1.01 0 0 1 1.412-.212c3.292 2.437 6.691 5.16 9.246 8.556 2.883 3.836 4.321 8.147 4.043 12.139-.064.894-.209 1.789-.358 2.681-.27 1.628-.527 3.169-.223 4.635.326 1.564 1.272 2.954 2.274 4.425 1.105 1.624 2.248 3.301 2.613 5.343.307 1.716.009 3.402-.277 5.035-.305 1.725-.592 3.353-.137 4.841.461 1.5 1.625 2.69 2.858 3.952.851.871 1.731 1.773 2.427 2.83 1.871 2.84 2.077 6.397 2.069 8.824-.002.808-.028 1.618-.054 2.429-.067 2.082-.13 4.05.195 5.994.318 1.903 1.051 3.484 2.04 4.68.967-.644 1.955-1.254 2.964-1.83-.29-.61-.487-1.249-.505-1.938-.068-2.708 2.576-5.05 2.142-7.724-.496-3.06-4.649-4.401-5.295-7.432-.47-2.202 1.122-4.332 1.192-6.583.144-4.607-5.768-7.34-6.487-11.893-.584-3.695 2.465-7.074 2.54-10.814.059-2.971-1.756-5.63-3.659-7.912s-4.037-4.535-4.843-7.394c1.93 2.186 4.428 3.762 6.767 5.504s4.555 3.975 5.144 6.831c1.051 5.096-3.363 10.494-1.35 15.292 1.475 3.515 6.069 5.552 6.182 9.362.076 2.554-2.03 4.995-1.312 7.448.622 2.13 3.088 3.178 4.122 5.141 1.506 2.855-.494 6.251-.607 9.478-.006.192.023.377.029.567 2.214-1.021 4.491-1.899 6.817-2.628-.717-1.24-1.242-2.688-1.511-4.303-.356-2.147-.288-4.313-.219-6.408l.053-2.352c.007-2.166-.166-5.323-1.737-7.708-.59-.896-1.366-1.688-2.186-2.529-1.347-1.378-2.74-2.804-3.342-4.773-.598-1.95-.255-3.898.078-5.782.269-1.524.522-2.966.277-4.329-.289-1.619-1.263-3.049-2.294-4.563-1.068-1.569-2.175-3.191-2.582-5.15-.381-1.835-.082-3.634.208-5.374.138-.83.279-1.661.336-2.491.244-3.509-1.05-7.338-3.643-10.785-2.269-3.017-5.174-5.44-8.834-8.146a1.01 1.01 0 0 1 1.2-1.624c3.291 2.435 6.688 5.154 9.246 8.555 2.884 3.836 4.322 8.147 4.044 12.139-.064.894-.211 1.79-.36 2.683-.27 1.629-.526 3.167-.223 4.632.327 1.565 1.273 2.954 2.275 4.424 1.106 1.624 2.248 3.301 2.614 5.345.307 1.716.008 3.402-.278 5.035-.304 1.725-.592 3.354-.136 4.841.46 1.5 1.623 2.693 2.856 3.953.851.873 1.731 1.772 2.427 2.828 1.873 2.841 2.08 6.398 2.071 8.826l-.054 2.411c-.067 2.089-.132 4.062.195 6.011.263 1.585.81 2.957 1.553 4.071 1.039-.285 2.085-.542 3.137-.772a4.24 4.24 0 0 1-.149-.966c-.069-2.709 2.575-5.05 2.141-7.725-.496-3.059-4.648-4.4-5.295-7.432-.469-2.202 1.122-4.332 1.193-6.583.142-4.606-5.769-7.34-6.489-11.893-.583-3.695 2.466-7.074 2.541-10.814.059-2.97-1.755-5.63-3.659-7.911s-4.037-4.535-4.844-7.395c1.93 2.187 4.429 3.762 6.768 5.504s4.556 3.976 5.145 6.832c1.049 5.095-3.364 10.494-1.351 15.292 1.475 3.515 6.069 5.551 6.183 9.362.075 2.554-2.032 4.995-1.314 7.448.623 2.129 3.088 3.177 4.123 5.14 1.506 2.855-.494 6.252-.607 9.478-.01.293.024.578.044.866a66.37 66.37 0 0 1 5.209-.545c-.365-1.041-.6-2.123-.7-3.221-.197-2.168.033-4.323.256-6.408l.228-2.341c.169-2.158.231-5.317-1.162-7.814-.521-.936-1.235-1.788-1.993-2.686C1.652 31.15.37 29.625-.086 27.617c-.45-1.989.037-3.905.509-5.759.38-1.501.74-2.919.598-4.297-.169-1.635-1.034-3.134-1.95-4.719-.949-1.643-1.93-3.344-2.192-5.327-.244-1.86.188-3.635.605-5.349.201-.817.4-1.633.519-2.456.504-3.48-.502-7.396-2.832-11.027-2.039-3.177-4.755-5.807-8.204-8.777a1.01 1.01 0 0 1 .287-1.703 1.01 1.01 0 0 1 1.03.173c3.101 2.671 6.286 5.637 8.583 9.218C-.539-8.367.574-3.961 0 0" transform="matrix(1.33333 0 0 -1.33333 713.857 446.57)" clip-path="url(#j)"/></g><g fill="#e98d9d"><path d="M0 0a98.154 98.154 0 0 1-2.877-16.632c-.225-2.709-.191-5.116.438-6.994.591-1.86 1.81-3.401 3.784-5.048 1.961-1.639 4.55-3.226 7.149-5.512 1.29-1.148 2.586-2.495 3.65-4.111a21.542 21.542 0 0 0 2.383-4.974c1.107-3.442 1.369-6.909 1.208-10.179-.146-3.288-1.236-10.154-1.938-13.191a3.764 3.764 0 0 0-7.357 1.587l.005.026c1.097 5.435 2.009 14.757.422 19.138a13.407 13.407 0 0 1-1.531 2.956c-.592.84-1.382 1.626-2.324 2.412-1.885 1.582-4.406 3.037-7.074 5.079-1.328 1.034-2.694 2.253-3.906 3.748-1.205 1.483-2.268 3.261-2.916 5.112-1.353 3.735-1.345 7.385-1.205 10.547A107.614 107.614 0 0 0-9.515 2.346 4.9 4.9 0 1 0 0 0" transform="matrix(1.33333 0 0 -1.33333 156.553 788.855)" clip-path="url(#k)"/><path d="M0 0c17.37 4.4 18.35 17.621 17.535 27.25-.155 1.82-1.538 3.376-3.356 3.557a3.766 3.766 0 0 1-4.155-4.07C11.029 15.166 7.7 9.716-1.849 7.297c-8.009-2.03-11.59-9.039-13.179-15.373-.399-1.59-2.486-1.952-3.362-.566l-.034.054c-1.171 1.757-1.549 4.664-1.311 8.029.11 1.672.341 3.479.602 5.33.258 1.83.553 3.625.913 5.378.71 3.51 1.679 6.849 3.021 9.894.026.058.059.138.083.196 1.374 3.47-.928 7.487-5.045 7.74-2.383.147-4.566-1.363-5.453-3.58l-.003-.005c-1.613-4.074-2.619-8.224-3.287-12.288a97.874 97.874 0 0 1-.799-6.044c-.201-1.971-.393-3.995-.457-6.17-.051-2.172.026-4.469.493-6.892.466-2.41 1.394-4.983 3.002-7.264 1.479-2.083 3.292-3.787 5.091-5.151 1.802-1.368 3.574-2.435 5.159-3.433 3.22-1.992 5.515-3.716 6.843-6.097.736-1.242 1.247-2.678 1.663-4.184.334-1.547.62-3.151.655-4.849.171-3.366-.254-6.918-.962-10.438-.704-3.529-1.78-7.044-3.037-10.486l-.022-.059a3.934 3.934 0 0 1 2.455-5.074c1.99-.668 4.165.472 4.955 2.418 1.495 3.68 2.801 7.45 3.742 11.383.953 3.989 1.634 8.122 1.589 12.463.026 2.158-.242 4.384-.657 6.609-.508 2.226-1.212 4.475-2.352 6.607-1.127 2.187-2.761 4.195-4.479 5.771l-.027.024c-1.703 1.572-2.578 3.847-2.218 6.136C-7.481-7.641-5.412-1.371 0 0" transform="matrix(1.33333 0 0 -1.33333 200.7 804.47)" clip-path="url(#l)"/><path d="M0 0a3.764 3.764 0 0 1-7.465-.961C-6.14-11.254-10.38-25.166-19.54-29.693c-1.476-.729-3.153-.845-4.487-.304-1.075.435-1.829 1.238-2.242 2.392-1.929 5.38-5.304 9.51-10.62 12.994-1.793 1.176-2.985 2.548-3.11 3.581-.073.607.27 1.323 1.021 2.129.996 1.068 2.856 1.697 4.827 2.362 1.463.495 2.977 1.007 4.431 1.777 6.388 3.389 8.218 7.534 8.629 10.416a3.763 3.763 0 0 1-7.452 1.062c-.312-2.195-3.082-3.968-4.704-4.828-.915-.486-2.08-.879-3.313-1.296-2.64-.893-5.633-1.903-7.925-4.363-2.906-3.12-3.228-6.162-2.986-8.163.629-5.204 4.878-7.406 8.486-10.422 4.963-4.148 6.635-10.214 5.826-16.455-.935-7.207-2.413-15.372-6.747-21.397a3.763 3.763 0 0 1 6.111-4.395c2.942 4.091 4.712 8.967 5.992 13.803.629 2.376 1.216 4.817 1.549 7.254.316 2.316.026 3.553 2.15 5.12 1.06.782 2.512.517 3.754.694 1.439.205 2.843.647 4.145 1.292C-3.444-30.134 1.668-12.96 0 0" transform="matrix(1.33333 0 0 -1.33333 259.795 805.579)" clip-path="url(#m)"/><path d="M0 0c-1.747.681-3.689.375-5.172-.898-.713-.613-1.199-1.457-1.492-2.351-2.24-6.835-5.461-11.095-9.575-12.661-.919-.348-1.88-.57-2.858-.66-1.628-.157-2.766 1.595-1.984 3.069 1.624 2.995 3.024 6.106 4.189 9.307.62 1.743 1.133 3.296 1.575 4.764l1.108 3.936a5.65 5.65 0 0 1-2.607 7.099 5.61 5.61 0 0 1-4.297.391c-1.438-.447-2.615-1.428-3.35-2.834a11.57 11.57 0 0 1-.346-.87 6.21 6.21 0 0 1-.241-.789l-.97-3.924a89.74 89.74 0 0 0-1.232-4.192c-.886-2.713-1.971-5.358-3.246-7.912-2.747-5.46-6.258-9.522-10.106-11.722l-1.739-.897-.528-.252c-.28-.12-.553-.255-.819-.404-.537-.283-1.052-.603-1.544-.958a14.32 14.32 0 0 1-4.547-5.385 14.57 14.57 0 0 1-1.157-3.337l-.418-2.526c-.237-1.474-.506-2.942-.808-4.404-.666-3.211-1.411-5.98-2.278-8.463-1.054-3.013-2.238-5.361-3.516-6.981l-.081-.102c-1.08-1.368-1.315-3.28-.445-4.79.743-1.289 1.941-2.083 3.266-2.272.616-.086 1.244-.043 1.843.126.875.246 1.647.798 2.229 1.497 2.55 3.066 4.021 6.309 5.232 9.37 1.085 2.739 1.904 5.612 2.644 8.462.727 2.797.614 6.127 2.07 8.677 2.682 4.699 11.693 7.439 16.704 6.588l.708-.11c3.919-.559 7.632-.193 11.037 1.088C-5.646-22.65-.399-16.303 2.848-6.454 3.692-3.892 2.514-.979 0 0" transform="matrix(1.33333 0 0 -1.33333 299.921 829.387)" clip-path="url(#n)"/></g><path d="M0 0s50.735 47.107 125.092 9.627 115.325-88.156 184.983-72.364c40.233 9.121 79.622 23.687 120.79 27.868 21.295 2.163 42.261.936 63.288-2.976 56.978-10.6 94.571 54.751 152.046 46.546v-208.015H-4.858z" transform="matrix(1.33333 0 0 -1.33333 -10.827 851.648)" clip-path="url(#o)" fill="#ffc693"/><path d="M0 0s-22.48-29.138-90.26-11.234-147.822 34.945-282.792-15.491c-52.721-16.476-202.564-27.308-290.821 41.961v-134.575H0z" transform="matrix(1.33333 0 0 -1.33333 850.77 1000.183)" clip-path="url(#p)" fill="#ffdfc5"/><g fill="#dd9152"><path d="M0 0a2.209 2.209 0 1 0-4.417.001A2.209 2.209 0 0 0 0 0" transform="matrix(1.33333 0 0 -1.33333 720.663 936.745)" clip-path="url(#q)"/><use xlink:href="#r" transform="matrix(1.33333 0 0 -1.33333 802.503 1006.945)" clip-path="url(#s)"/><use xlink:href="#t" transform="matrix(1.33333 0 0 -1.33333 807.647 968.451)" clip-path="url(#u)"/><use xlink:href="#r" transform="matrix(1.33333 0 0 -1.33333 586.885 979.353)" clip-path="url(#v)"/><use xlink:href="#r" transform="matrix(1.33333 0 0 -1.33333 615.823 1006.158)" clip-path="url(#w)"/><use xlink:href="#r" transform="matrix(1.33333 0 0 -1.33333 541.643 1080.653)" clip-path="url(#x)"/><use xlink:href="#r" transform="matrix(1.33333 0 0 -1.33333 453.249 984.924)" clip-path="url(#y)"/><use xlink:href="#r" transform="matrix(1.33333 0 0 -1.33333 520.887 1013.753)" clip-path="url(#z)"/><use xlink:href="#r" transform="matrix(1.33333 0 0 -1.33333 385.166 978.568)" clip-path="url(#A)"/><use xlink:href="#t" transform="matrix(1.33333 0 0 -1.33333 316.854 1016.14)" clip-path="url(#B)"/><use xlink:href="#r" transform="matrix(1.33333 0 0 -1.33333 499.678 1077.295)" clip-path="url(#C)"/><use xlink:href="#r" transform="matrix(1.33333 0 0 -1.33333 300.017 1065.95)" clip-path="url(#D)"/><use xlink:href="#t" transform="matrix(1.33333 0 0 -1.33333 767.648 881.373)" clip-path="url(#E)"/><use xlink:href="#t" transform="matrix(1.33333 0 0 -1.33333 740.61 900.41)" clip-path="url(#F)"/><use xlink:href="#t" transform="matrix(1.33333 0 0 -1.33333 426.24 976.41)" clip-path="url(#G)"/><use xlink:href="#r" transform="matrix(1.33333 0 0 -1.33333 285.87 1034.062)" clip-path="url(#H)"/><use xlink:href="#r" transform="matrix(1.33333 0 0 -1.33333 261.6 982.297)" clip-path="url(#I)"/><use xlink:href="#r" transform="matrix(1.33333 0 0 -1.33333 179.473 919.9)" clip-path="url(#J)"/><use xlink:href="#r" transform="matrix(1.33333 0 0 -1.33333 28.273 911.075)" clip-path="url(#K)"/><use xlink:href="#r" transform="matrix(1.33333 0 0 -1.33333 225.16 941.223)" clip-path="url(#L)"/><use xlink:href="#t" transform="matrix(1.33333 0 0 -1.33333 106.023 852.69)" clip-path="url(#M)"/><use xlink:href="#r" transform="matrix(1.33333 0 0 -1.33333 21.264 867.004)" clip-path="url(#N)"/><path d="M0 0a2.209 2.209 0 1 0-4.417.001A2.209 2.209 0 0 0 0 0" transform="matrix(1.33333 0 0 -1.33333 197.326 967.8)" clip-path="url(#O)"/><use xlink:href="#t" transform="matrix(1.33333 0 0 -1.33333 607.719 967.097)" clip-path="url(#P)"/><use xlink:href="#r" transform="matrix(1.33333 0 0 -1.33333 646.458 1020.023)" clip-path="url(#Q)"/><use xlink:href="#t" transform="matrix(1.33333 0 0 -1.33333 643.514 922.844)" clip-path="url(#R)"/><use xlink:href="#r" transform="matrix(1.33333 0 0 -1.33333 712.958 991.701)" clip-path="url(#S)"/><use xlink:href="#t" transform="matrix(1.33333 0 0 -1.33333 637.116 1077.295)" clip-path="url(#T)"/><use xlink:href="#r" transform="matrix(1.33333 0 0 -1.33333 674.885 917.87)" clip-path="url(#U)"/></g><g fill="#fff8f3"><use xlink:href="#V" transform="matrix(1.33333 0 0 -1.33333 731.884 915.711)" clip-path="url(#W)"/><use xlink:href="#V" transform="matrix(1.33333 0 0 -1.33333 771.966 974.62)" clip-path="url(#X)"/><path d="M0 0a1.618 1.618 0 1 0-3.237-.001A1.618 1.618 0 0 0 0 0" transform="matrix(1.33333 0 0 -1.33333 710.008 914.006)" clip-path="url(#Y)"/><use xlink:href="#Z" transform="matrix(1.33333 0 0 -1.33333 217.78 962.965)" clip-path="url(#aa)"/><use xlink:href="#V" transform="matrix(1.33333 0 0 -1.33333 178.688 945.82)" clip-path="url(#ab)"/><path d="M0 0a1.619 1.619 0 1 0-3.238.002A1.619 1.619 0 0 0 0 0" transform="matrix(1.33333 0 0 -1.33333 702.86 961.167)" clip-path="url(#ac)"/><use xlink:href="#Z" transform="matrix(1.33333 0 0 -1.33333 669.21 1019.084)" clip-path="url(#ad)"/><use xlink:href="#Z" transform="matrix(1.33333 0 0 -1.33333 621.398 946.118)" clip-path="url(#ae)"/><path d="M0 0a1.618 1.618 0 1 0-3.237 0A1.618 1.618 0 0 0 0 0" transform="matrix(1.33333 0 0 -1.33333 521.339 1081.44)" clip-path="url(#af)"/><use xlink:href="#Z" transform="matrix(1.33333 0 0 -1.33333 504.854 989.241)" clip-path="url(#ag)"/><use xlink:href="#Z" transform="matrix(1.33333 0 0 -1.33333 504.854 1016.14)" clip-path="url(#ah)"/><use xlink:href="#Z" transform="matrix(1.33333 0 0 -1.33333 625.615 976.41)" clip-path="url(#ai)"/><use xlink:href="#Z" transform="matrix(1.33333 0 0 -1.33333 472.344 1065.95)" clip-path="url(#aj)"/><path d="M0 0a1.618 1.618 0 1 0-3.237 0A1.618 1.618 0 0 0 0 0" transform="matrix(1.33333 0 0 -1.33333 400.357 965.784)" clip-path="url(#ak)"/><use xlink:href="#Z" transform="matrix(1.33333 0 0 -1.33333 769.807 931.702)" clip-path="url(#al)"/><path d="M0 0a1.62 1.62 0 1 0-3.24.002A1.62 1.62 0 0 0 0 0" transform="matrix(1.33333 0 0 -1.33333 809.806 877.718)" clip-path="url(#am)"/><use xlink:href="#Z" transform="matrix(1.33333 0 0 -1.33333 731.884 987.083)" clip-path="url(#an)"/><use xlink:href="#V" transform="matrix(1.33333 0 0 -1.33333 672.383 991.701)" clip-path="url(#ao)"/><use xlink:href="#Z" transform="matrix(1.33333 0 0 -1.33333 564.603 1001.055)" clip-path="url(#ap)"/><use xlink:href="#Z" transform="matrix(1.33333 0 0 -1.33333 634.172 1003.214)" clip-path="url(#aq)"/><use xlink:href="#Z" transform="matrix(1.33333 0 0 -1.33333 625.615 1077.295)" clip-path="url(#ar)"/><use xlink:href="#V" transform="matrix(1.33333 0 0 -1.33333 425.456 946.555)" clip-path="url(#as)"/></g><use xlink:href="#V" transform="matrix(1.33333 0 0 -1.33333 683.061 1016.697)" clip-path="url(#at)" fill="#dd9152"/><g fill="#fff8f3"><use xlink:href="#Z" transform="matrix(1.33333 0 0 -1.33333 579.53 1083.597)" clip-path="url(#au)"/><use xlink:href="#Z" transform="matrix(1.33333 0 0 -1.33333 273.768 1006.158)" clip-path="url(#av)"/><use xlink:href="#Z" transform="matrix(1.33333 0 0 -1.33333 208.08 933.88)" clip-path="url(#aw)"/><use xlink:href="#Z" transform="matrix(1.33333 0 0 -1.33333 83.09 843.982)" clip-path="url(#ax)"/><use xlink:href="#Z" transform="matrix(1.33333 0 0 -1.33333 109.758 882.848)" clip-path="url(#ay)"/><use xlink:href="#Z" transform="matrix(1.33333 0 0 -1.33333 235.218 991.4)" clip-path="url(#az)"/><use xlink:href="#V" transform="matrix(1.33333 0 0 -1.33333 390.932 993.86)" clip-path="url(#aA)"/><use xlink:href="#V" transform="matrix(1.33333 0 0 -1.33333 349.75 999.452)" clip-path="url(#aB)"/></g><g fill="#dbf2ff"><path d="m0 0 .71.601c.275.227.545.503.817.758l1.548 1.674C4.077 4.184 4.906 5.456 5.64 6.745c1.415 2.613 2.221 5.413 2.351 8.256.11 2.841-.297 5.744-1.436 8.584l-.381 1.097-.507 1.241-1.018 2.484-2.103 5.016C-.25 40.15-3.294 47.188-4.853 55.364c-.777 4.065-1.036 8.454-.541 12.809.477 4.358 1.681 8.61 3.323 12.558a7.3 7.3 0 0 0 12.707 1.384 7.3 7.3 0 0 0 .585-7.399l-.042-.085C8.508 69.225 7.36 63.616 8.177 57.369c.742-6.237 2.995-12.888 5.371-19.738l1.792-5.186.886-2.633.441-1.319c.147-.439.288-1.01.43-1.509 1.287-4.028 1.721-8.53 1.226-12.921-.498-4.409-2.082-8.669-4.395-12.304-1.179-1.802-2.482-3.502-3.969-5.011-.721-.776-1.508-1.485-2.311-2.185-.413-.342-.809-.688-1.255-1.016a22.15 22.15 0 0 0-1.467-1.044A4.47 4.47 0 0 0-.417-.354z" transform="matrix(1.33333 0 0 -1.33333 684.383 880.347)" clip-path="url(#aC)"/><path d="M0 0c-1.38-2.836-2.41-5.936-3.049-9.112-.61-3.154-.901-6.495-.602-9.444.45-6.065 3.228-12.429 6.521-19.532 1.599-3.558 3.3-7.355 4.7-11.465.726-2.065 1.218-3.983 1.764-6.03a66.531 66.531 0 0 0 1.328-6.185c.691-4.207 1.076-8.56.686-13.047-.326-4.45-1.524-9.095-3.922-13.159a4.4 4.4 0 0 0-8.085 3.197l.076.334C.813-78.24-.276-71.438-2.18-64.597c-1.008 3.387-2.148 6.937-3.49 10.243-1.264 3.233-2.889 6.511-4.649 9.997-1.727 3.494-3.538 7.197-5.109 11.265-1.533 4.084-2.722 8.613-3.103 13.361-.338 4.838.129 9.355 1.204 13.817a44.394 44.394 0 0 0 5.195 12.721A6.96 6.96 0 0 0 .093.19Z" transform="matrix(1.33333 0 0 -1.33333 670.717 768.978)" clip-path="url(#aD)"/><path d="M0 0c12.298-12.457 19.53-29.417 19.953-46.723.064-2.264.002-4.07.018-5.982.001-1.899.03-3.772.106-5.625.144-3.709.453-7.348 1.057-10.841 1.185-6.969 3.664-13.403 8.147-17.448l.033-.03a5.526 5.526 0 0 0 .402-7.804c-1.994-2.211-5.378-2.428-7.645-.538-3.693 3.085-6.5 7.02-8.488 11.08-2.003 4.077-3.274 8.295-4.163 12.461-.885 4.172-1.383 8.315-1.697 12.396-.162 2.043-.27 4.072-.346 6.075-.089 1.991-.112 4.089-.231 5.726C6.296-33.33-.157-19.82-10.197-10.43A7.295 7.295 0 1 0-.043.045z" transform="matrix(1.33333 0 0 -1.33333 624.178 760.305)" clip-path="url(#aE)"/><path d="M0 0c4.491-1.456 8.636-3.545 12.423-6.118a49.888 49.888 0 0 0 5.387-4.257 45.187 45.187 0 0 0 2.466-2.411 51.632 51.632 0 0 0 2.392-2.78c2.995-3.919 5.11-8.4 6.306-12.772 1.24-4.384 1.808-8.671 2.126-12.755.649-8.161.425-15.801 1.629-22.589.57-3.395 1.549-6.471 3.027-9.145 1.504-2.649 3.583-4.87 6.202-6.696l.096-.068A5.106 5.106 0 0 0 43.32-86.7c-1.538-2.204-4.515-2.813-6.793-1.471-3.913 2.32-7.516 5.634-10.09 9.577-2.561 3.948-4.167 8.289-5.158 12.469-2.005 8.402-2.21 16.362-3.302 23.577-.992 7.238-2.939 13.542-6.703 17.695-.495.522-.956.996-1.504 1.523a30.288 30.288 0 0 1-1.794 1.532 34.33 34.33 0 0 1-3.913 2.69c-2.731 1.603-5.669 2.827-8.607 3.564A8.104 8.104 0 1 0-.096.031z" transform="matrix(1.33333 0 0 -1.33333 589.374 776.935)" clip-path="url(#aF)"/><path d="M0 0c6.902-4.341 12.763-10.612 16.579-17.398 3.918-6.755 6.395-13.692 8.778-20.199 1.196-3.227 2.374-6.547 3.616-9.382 1.28-2.883 2.723-5.625 4.48-7.972 3.457-4.775 8.112-7.907 13.86-9.109l.04-.008a5.11 5.11 0 0 0 3.954-6.043c-.559-2.669-3.119-4.41-5.783-4.002-3.994.62-8.024 1.983-11.647 4.104-3.655 2.091-6.74 4.986-9.313 8.077-2.583 3.111-4.571 6.487-6.295 9.875-1.731 3.468-3.035 6.663-4.434 9.898-2.725 6.432-5.357 12.542-8.733 17.683A35.58 35.58 0 0 1-7.47-12.515l-.018.011a7.29 7.29 0 0 0-2.726 9.941A7.29 7.29 0 0 0 0 0" transform="matrix(1.33333 0 0 -1.33333 573.613 801.34)" clip-path="url(#aG)"/></g><path d="M0 0c-17.404-2.947-23.601-12.313-25.802-18.879-1.252-3.737 1.097-7.754 4.953-8.567 22.028-4.649 60.352 1.347 59.163 9.54C37.005-8.881 27.732 4.697 0 0" transform="matrix(1.33333 0 0 -1.33333 651.462 876.695)" clip-path="url(#aH)" fill="#ff8c1a"/><g opacity=".5" clip-path="url(#aI)" transform="translate(11.339 11.339)"><path d="M0 0c-12.526-3.999-34.939-5.739-49.87-2.588-3.857.814-6.205 4.83-4.953 8.567a24.737 24.737 0 0 0 2.156 4.717c-6.581-4.08-9.636-9.431-11.046-13.636-1.252-3.738 1.097-7.754 4.953-8.568C-36.732-16.156 1.592-10.16.403-1.968A17.973 17.973 0 0 1 0 0" transform="matrix(1.33333 0 0 -1.33333 690.672 886.607)" clip-path="url(#aJ)" fill="#ff8c1a"/></g><path d="M0 0a8.66 8.66 0 0 0-11.076-5.23A8.662 8.662 0 1 0 0 0m-19.919-11.049c-2.406-8.655-7.221-24.932-13.958-42.653-9.939-26.147-21.842-45.799-21.842-45.799l9.616-3.447 9.616-3.448s3.292 22.741 12.227 49.247c6.055 17.965 12.677 33.594 16.317 41.807 7.421.088 14.349 4.7 17 12.096 3.407 9.505-1.536 19.973-11.041 23.38s-19.973-1.536-23.38-11.041c-2.651-7.397-.231-15.36 5.445-20.142" transform="matrix(1.33333 0 0 -1.33333 118.454 741.652)" clip-path="url(#aK)" fill="#084966"/><path d="M0 0c-2.038-3.448-3.267-7.647-3.272-12.127.026-4.475 1.489-9.053 3.905-12.803 2.397-3.789 5.591-6.822 8.998-9.227 3.425-2.407 7.108-4.194 10.858-5.571 3.771-1.319 7.75-2.279 11.925-2.595 4.158-.308 8.552.006 12.81 1.409 4.249 1.362 8.287 3.968 11.15 7.406 2.841 3.464 4.56 7.487 5.177 11.446a3.512 3.512 0 0 1-6.383 2.506l-.118-.176c-1.796-2.667-3.697-4.904-5.903-6.404-2.133-1.579-4.558-2.385-7.121-2.814-5.158-.833-11.092.255-16.852 2.292-5.742 2.086-11.016 5.015-14.471 8.935-1.707 1.959-3.067 4.123-3.711 6.699C6.241-8.466 6.194-5.53 6.5-2.33l.021.208A3.512 3.512 0 0 1 0 0" transform="matrix(1.33333 0 0 -1.33333 57.063 749.508)" clip-path="url(#aL)" fill="#146c93"/><g fill="#084966"><path d="M0 0c-3.958-6.54-6.226-14.286-6.737-22.263-.499-7.988.841-16.209 3.86-23.862s7.778-14.711 13.81-20.524c1.554-1.399 3.118-2.807 4.761-4.109 1.712-1.21 3.404-2.467 5.168-3.605l5.535-3.018 5.797-2.458 6.038-1.784c2.051-.448 4.125-.819 6.191-1.186 2.087-.241 4.192-.345 6.282-.499 2.096-.038 4.198.056 6.287.149 8.352.657 16.508 3.087 23.704 7.077s13.451 9.49 18.14 15.977c4.673 6.484 7.842 13.908 8.94 21.472.129.887-.1 1.788-.636 2.506s-1.335 1.193-2.222 1.322c-1.319.192-2.628-.409-3.34-1.536l-.036-.057c-7.25-11.48-17.223-19.589-28.398-23.692-11.162-4.121-23.186-4.106-33.96-.247S19.117-48.846 13.115-38.572C7.09-28.305 4.54-15.706 6.234-2.234l.008.063a3.38 3.38 0 0 1-2.243 3.61A3.38 3.38 0 0 1 0 0" transform="matrix(1.33333 0 0 -1.33333 7.638 790.374)" clip-path="url(#aM)"/><path d="m0 0 11.417 9.33c1.187.969 2.977.327 3.277-1.175l2.89-14.459c.377-1.88-1.824-3.186-3.294-1.955L9.226-4.021c-.37.309-.838.477-1.321.473l-6.602-.056C-.615-3.62-1.485-1.214 0 0" transform="matrix(1.33333 0 0 -1.33333 .133 787.489)" clip-path="url(#aN)"/><path d="m0 0-2.891 14.459c-.3 1.502-2.09 2.144-3.276 1.175l-11.418-9.33c-1.485-1.214-.615-3.62 1.303-3.605l6.602.057a2.03 2.03 0 0 0 1.321-.474l5.064-4.237C-1.825-3.187.376-1.881 0 0" transform="matrix(1.33333 0 0 -1.33333 158.969 844.424)" clip-path="url(#aO)"/></g><g fill="#ea74b7"><path d="M0 0s-25.198 44.039-16.971 78.448c4.456 12.567 29.038 11.513 35.016 7.512s19.748-33.439 18.031-82.5C32.356 2.107 0 0 0 0" transform="matrix(1.33333 0 0 -1.33333 667.336 1156.886)" clip-path="url(#aP)"/><path d="M0 0s6.521 14.002 11.083 18.209 26.898.179 30.357-14.959c.36-7.536-11.708-54.574-23.696-68.038-4.776.727-27.254 5.015-27.254 5.015S-8.521-20.684 0 0" transform="matrix(1.33333 0 0 -1.33333 757.362 1062.732)" clip-path="url(#aQ)"/></g><g fill="#d3409e"><path d="M0 0c.307-3.327-6.035-6.711-14.166-7.558s-14.972 1.164-15.279 4.492 6.035 6.712 14.166 7.558S-.308 3.328 0 0" transform="matrix(1.33333 0 0 -1.33333 690.202 1052.274)" clip-path="url(#aR)"/><path d="M0 0c-.993-2.783 3.309-7.095 9.608-9.631s12.213-2.335 13.206.448-3.308 7.095-9.608 9.631S.994 2.783 0 0" transform="matrix(1.33333 0 0 -1.33333 774.007 1045.45)" clip-path="url(#aS)"/></g><g opacity=".5" clip-path="url(#aT)" transform="translate(11.339 11.339)"><path d="M0 0c2.956-6.483 5.231-10.471 5.231-10.471s32.357 2.108 36.077 3.46c1.189 33.974-5.049 58.53-10.983 71.753C28.874 52.803 22.43 15.805 0 0" transform="matrix(1.33333 0 0 -1.33333 649.022 1131.586)" clip-path="url(#aU)" fill="#ea74b7"/></g><g opacity=".5" clip-path="url(#aV)" transform="translate(11.339 11.339)"><path d="M0 0c-3.19-5.306-5.962-11.244-5.962-11.244-8.52-20.684-9.51-59.774-9.51-59.774l27.254-5.015c4.82 5.413 9.65 16.251 13.681 27.765C3.151-42.334.158-13.383 0 0" transform="matrix(1.33333 0 0 -1.33333 753.973 1036.402)" clip-path="url(#aW)" fill="#ea74b7"/></g><path d="M0 0s-1.39 25.919 3.77 32.24 10.259 9.273 18.722 10.326 20.367 2.529 23.74-18.122-1.586-77.756-2.975-88.503c-4.167-1.474-36.113 0-36.113 0S.953-22.583 0 0" transform="matrix(1.33333 0 0 -1.33333 698.003 1065.25)" clip-path="url(#aX)" fill="#ff8fcd"/><path d="M0 0c.521-3.297-5.107-7.048-12.571-8.377s-13.937.266-14.457 3.563 5.107 7.047 12.571 8.377S-.521 3.298 0 0" transform="matrix(1.33333 0 0 -1.33333 746.01 1020.607)" clip-path="url(#aY)" fill="#d3409e"/><g opacity=".5" clip-path="url(#aZ)" transform="translate(11.339 11.339)"><path d="m0 0 2.682-19.405s31.946-1.475 36.113 0c1.197 9.262 5.043 52.948 3.923 78.063C39.623 43.78 29.604 11.451 0 0" transform="matrix(1.33333 0 0 -1.33333 692.613 1113.45)" clip-path="url(#ba)" fill="#ff8fcd"/></g><g clip-path="url(#bb)" transform="translate(11.339 11.339)"><path d="M0 0c0-2.985-12.503-5.406-27.926-5.406S-55.853-2.985-55.853 0s12.503 5.407 27.927 5.407S0 2.986 0 0" transform="matrix(1.33333 0 0 -1.33333 226.607 1014.907)" clip-path="url(#bc)" fill="#ffdfc5"/></g><path d="M0 0s7.053 9.347 16.394 8.654 13.21-6.828 17.957-9.85 6.733-3.053 6.733-3.053-5.13-20.605-23.889-21.566c-9.187-.308-13.959 3.437-18.343 6.252 0 0-6.884-1.524-7.287 4.167-1.282-1.134-5.751.046-6.103 3.297-1.296-.613-4.13 1.124-3.784 3.184s2.748 3.535 4.136 2.867c.512 1.25 2.822 5.199 6.318 2.635C-7.287-1.396-3.611 2.577 0 0" transform="matrix(1.33333 0 0 -1.33333 181.175 993.74)" clip-path="url(#bd)" fill="#ff8c1a"/><g fill="#ff5b1a"><path d="M0 0c.652-1.415 1.08-2.916 1.421-4.447a23.41 23.41 0 0 0 .44-4.717c-.014-1.589-.132-3.264-.815-4.766l-.567-1.09-.726-.993-.385-.47-.455-.415-.968-.744c-.037-.024-.085-.022-.12.005s-.05.072-.037.114l.002.007 1.379 4.277c.329 1.385.914 2.725 1.097 4.201A22.09 22.09 0 0 1 .43-4.577 25.52 25.52 0 0 1-.187-.069l-.002.006A.1.1 0 0 0 0 0" transform="matrix(1.33333 0 0 -1.33333 182.488 996.386)" clip-path="url(#be)"/><path d="M0 0c.545-.912.917-1.908 1.226-2.935.294-1.03.461-2.104.5-3.195l.044-1.654c-.043-.552-.116-1.109-.337-1.624-.39-1.041-1.055-1.991-2.003-2.663a.11.11 0 0 0-.155.026c-.013.018-.02.039-.021.061v.006c-.037 1.175.151 2.117.247 3.086.112.947.506 1.844.626 2.824a16.64 16.64 0 0 1 .112 2.969A15.34 15.34 0 0 1-.182-.082l-.002.007A.1.1 0 0 0 0 0" transform="matrix(1.33333 0 0 -1.33333 170.806 998.236)" clip-path="url(#bf)"/><path d="M0 0c.498-.945.797-2 .86-3.105.037-.548.072-1.137-.148-1.67A2.672 2.672 0 0 0-.355-6.097a.056.056 0 0 0-.077.018.076.076 0 0 0-.008.036c.024.593.135 1.053.19 1.538.05.475.261.924.311 1.423A9.508 9.508 0 0 1-.092-.038a.05.05 0 0 0 .033.062A.053.053 0 0 0 0 0" transform="matrix(1.33333 0 0 -1.33333 162.322 1001.778)" clip-path="url(#bg)"/></g><g opacity=".5" clip-path="url(#bh)" transform="translate(11.339 11.339)"><path d="M0 0s3.884 6.937 11.87 6.746 11.186-4.184 10.845-5.722c-.401-1.802-4.35-2.544-5.774-2.94-3.743-1.041-7.764-1.728-11.656-1.371C3.918-3.162-1.26-2.52 0 0" transform="matrix(1.33333 0 0 -1.33333 174.343 981.924)" clip-path="url(#bi)" fill="#fff"/></g><g opacity=".5" clip-path="url(#bj)" transform="translate(11.339 11.339)"><path d="M0 0c.028.503.474 1.068.754 1.408a4.69 4.69 0 0 0 2.734 1.607c2.8.547 2.997-1.684 2.756-2.209C5.911.08 4.902-.274 4.207-.503a8.856 8.856 0 0 0-2.834-.442c-.25.002-.504.014-.739.099C.283-.72-.022-.389 0 0" transform="matrix(1.33333 0 0 -1.33333 160.876 986.613)" clip-path="url(#bk)" fill="#fff"/></g><g opacity=".5" clip-path="url(#bl)" transform="translate(11.339 11.339)"><path d="M0 0c-.024.523.345 1.154.609 1.531.492.7 1.22 1.183 2.034 1.431 2.432.741 2.985-1.139 2.598-1.775-.526-.865-1.455-1.41-2.4-1.708-.704-.223-2.26-.673-2.736.144A.817.817 0 0 0 0 0" transform="matrix(1.33333 0 0 -1.33333 151.79 990.782)" clip-path="url(#bm)" fill="#fff"/></g><g fill="#7cc78e"><path d="M0 0c2.283 4.777 3.897 8.825 3.042 14.161C1.435 24.184-6.829 31.91-13.507 39.91c-3.274 3.922-5.445 8.534-5.644 13.331-.191 4.594 2.359 8.399 3.081 12.82.985 6.032-.422 12.349-3.403 17.881-2.955 5.488-7.208 9.718-6.048 16.066.965 5.289 5.322 12.02 3.52 17.389-2.081 6.198-8.989 9.16-11.968-1.167-1.954-6.77-4.793-13.433-5.492-20.409-1.368-13.648 11.724-24.261 7.37-38.083-2.452-7.783-3.259-16.341 1.96-23.511 3.621-4.977 9.425-8.454 13.635-13.04 4.975-5.421 7.186-11.929 5.758-18.689C-12.38-5.278-2.567-5.371 0 0" transform="matrix(1.33333 0 0 -1.33333 159.709 1154.336)" clip-path="url(#bn)"/><path d="M0 0s-10.895-.308-13.394-18.856c-1.275-9.461-.012-18.91-.794-28.37-.765-9.24-8.572-18.993-5.104-28.092 1.696-4.451 5.417-8.144 8.102-12.246 3.856-5.89 5.532-12.742 4.821-19.413-.679-6.377-2.256-13.177 2.793-18.75 1.543-1.702 3.465-3.138 5.195-4.712 5.181-4.715 7.747-10.109 9.519-16.193 1.364-4.686 3.568-8.487 10.072-8.787 4.953-.228 9.234 1.472 10.11 5.818.995 4.936-1.501 10.362-3.423 14.94-5.782 13.778-19.946 22.481-20.952 37.948-.624 9.578 1.85 18.909.076 28.497C5.659-60.854.548-54.438-2.533-47.551c-5.336 11.925-.069 22.117 5.78 33.082C6.304-8.737 8.091.631 0 0" transform="matrix(1.33333 0 0 -1.33333 89.81 954.788)" clip-path="url(#bo)"/><path d="M0 0c.657 4.228 1.974 8.416 2.76 12.625.939 5.026.732 12.438-5.949 14.778-2.394.837-4.838.616-6.707-.991-1.145-.983-1.859-2.254-2.432-3.534-3.339-7.464-2.279-15.389-2.232-23.162.034-5.501-1.413-10.926-1.403-16.425.009-5.297 1.941-9.988 5.416-14.413 3.286-4.186 6.173-8.958 7.373-14.044 1.303-5.522.624-11.037 2.485-16.515 2.413-7.1 10.04-20.979 21.044-20.984 9.245-.004 13.18 5.183 7.668 11.478-4.488 5.126-8.349 10.836-10.443 16.956-2.204 6.436-1.841 13.252-3.734 19.765-1.354 4.657-3.586 9.083-7.087 12.916C3.294-17.756.847-13.493-.04-8.739-.588-5.795-.448-2.889 0 0" transform="matrix(1.33333 0 0 -1.33333 53.273 1044.116)" clip-path="url(#bp)"/></g><g fill="#4e9b5e"><path d="M0 0c1.603 6.345 3.756 12.583 6.553 18.617.02.04.074.063.124.05s.081-.061.064-.105c-2.164-6.19-3.928-12.47-5.203-18.8C.883-3.4.376-6.58.083-9.768c-.281-3.184-.459-6.378-.234-9.546.204-3.162.675-6.322 1.763-9.317l.859-2.29c.287-.783.605-1.559.864-2.349.476-1.586.982-3.168 1.312-4.776.408-1.598.646-3.215.919-4.826.196-1.617.413-3.232.527-4.85.297-3.233.355-6.467.449-9.692.117-3.224.147-6.447.462-9.655.115-1.608.333-3.205.526-4.806.252-1.594.525-3.186.914-4.76.327-1.584.868-3.13 1.337-4.683a35.33 35.33 0 0 1 2.015-4.481c1.585-2.91 3.543-5.672 5.633-8.369 4.126-5.415 8.721-10.683 12.18-16.561 1.723-2.931 3.07-6.046 3.785-9.27a20.27 20.27 0 0 0 .295-6.941c-.164-.029-.333-.05-.501-.073.033.708.038 1.416-.009 2.123-.117 1.595-.389 3.175-.813 4.717-.851 3.103-2.375 6.043-4.142 8.868-3.568 5.657-8.231 10.831-12.216 16.417-1.978 2.799-3.796 5.699-5.24 8.734-.703 1.51-1.298 3.067-1.781 4.66-.406 1.588-.888 3.159-1.181 4.761C6.4-70.36 5.98-63.887 5.448-57.455c-.248 3.213-.56 6.421-.936 9.621-.375 3.193-.92 6.364-1.709 9.482-.356 1.569-.883 3.099-1.375 4.635-.268.763-.594 1.51-.887 2.265l-.922 2.316c-.327.788-.537 1.598-.79 2.4-.177.812-.418 1.619-.537 2.436-.315 1.628-.478 3.267-.574 4.904C-2.587-12.84-1.55-6.348 0 0" transform="matrix(1.33333 0 0 -1.33333 77.848 992.498)" clip-path="url(#bq)"/><path d="M0 0c-2.431 4.208-4.326 8.84-4.011 13.707.083.601.091 1.21.249 1.805a33.82 33.82 0 0 0 .409 1.747c.149.555.285 1.115.391 1.685.117.566.245 1.131.339 1.704.411 2.284.728 4.59 1.008 6.903L-.144 41.48c.004.041.045.076.096.078s.102-.035.104-.08c.249-4.674.202-9.353-.126-14.029a73.81 73.81 0 0 0-.8-7.011 30.81 30.81 0 0 0-.743-3.499c-.305-1.178-.606-2.203-.74-3.343-.318-2.237-.118-4.536.404-6.788S-.566 2.337.587.228c1.187-2.144 2.597-4.157 4.205-6.006.812-.944 1.69-1.836 2.549-2.799.423-.479.786-.99 1.183-1.486l1.034-1.563c2.603-4.27 3.55-9.085 3.909-13.76.091-1.174.163-2.346.218-3.515.072-1.158.069-2.368.215-3.45.273-2.221.911-4.461 1.69-6.654.759-2.206 1.767-4.352 2.811-6.484 1.105-2.112 2.304-4.193 3.676-6.197 1.41-1.976 2.846-3.967 4.647-5.722 1.149-1.157 2.388-2.221 3.705-3.183-.222-.055-.468-.095-.702-.141a28.84 28.84 0 0 0-3.762 2.769l-1.441 1.315-1.332 1.388c-.459.456-.853.947-1.266 1.43-.404.486-.836.962-1.197 1.471-1.544 1.989-2.879 4.082-4.101 6.219-1.177 2.154-2.228 4.358-3.08 6.624-.806 2.278-1.503 4.597-1.725 7.026-.124 1.242-.08 2.369-.12 3.542a111.25 111.25 0 0 1-.115 3.476c-.24 4.607-.867 9.225-3.022 13.462a45.53 45.53 0 0 1-.894 1.549c-.35.492-.667 1.005-1.045 1.485-.743.956-1.599 1.905-2.392 2.876C2.656-4.149 1.228-2.118 0 0" transform="matrix(1.33333 0 0 -1.33333 45.967 1072.863)" clip-path="url(#br)"/><path d="m0 0-1.134 1.77-1.056 1.911c-1.187 2.63-1.548 5.439-1.381 8.17.169 2.74.929 5.408 1.958 7.965C-.55 22.412.84 24.862 2.524 27.105c.027.036.083.05.129.032s.071-.071.046-.112l-.002-.004C1.314 24.667.194 22.17-.645 19.572c-.838-2.548-1.317-5.165-1.363-7.763-.041-2.593.425-5.189 1.611-7.541L.63 2.565C.958 2 1.413 1.397 1.798.815l2.258-3.601c1.387-2.454 2.587-5.005 3.381-7.662.799-2.653 1.225-5.395 1.197-8.134-.014-2.741-.54-5.46-1.374-8.083l-1.288-3.849c-.386-1.271-.687-2.566-.902-3.876-.394-2.605-.464-5.278.169-7.866.302-1.309.759-2.577 1.364-3.777.609-1.219 1.416-2.364 2.289-3.471 1.77-2.208 3.933-4.184 5.97-6.273 2.048-2.097 3.867-4.344 5.51-6.679 3.243-4.686 5.482-9.923 6.168-15.345.363-2.708.156-5.468-.5-8.126-.475-1.87-1.248-3.677-2.257-5.38a6.12 6.12 0 0 0-.51.036c1.956 4.261 2.522 8.866 1.727 13.323-.879 5.189-3.131 10.174-6.09 14.832-1.465 2.339-3.075 4.631-4.936 6.782-1.848 2.167-3.882 4.264-5.626 6.537-1.752 2.261-3.146 4.768-3.798 7.425a23.49 23.49 0 0 0-.569 8.077c.126 1.351.352 2.693.658 4.024.294 1.332.729 2.653 1.079 3.917.69 2.561 1.068 5.169 1.035 7.771C6.69-13.362 4.802-8.285 2.125-3.535 1.478-2.337.749-1.164 0 0" transform="matrix(1.33333 0 0 -1.33333 119.52 1037.559)" clip-path="url(#bs)"/></g></svg>