<svg width="147" height="126" viewBox="0 0 147 126" fill="none" xmlns="http://www.w3.org/2000/svg">
<path d="M121.623 75.7289C121.623 75.7289 134.3 88.0945 129.018 97.0252C123.736 105.956 101.903 102.864 101.903 102.864L121.623 75.7289Z" fill="#563070"/>
<path d="M87.9614 112.933C87.9614 112.933 77.9151 128.833 67.1792 125.555C56.4434 122.277 54.4561 99.2212 54.4561 99.2212L87.9614 112.933Z" fill="#563070"/>
<path d="M102.255 109.734C81.1272 120.726 25.7683 109.635 8.93861 92.9033C-9.37262 74.6984 4.00867 59.9284 17.39 60.9589C17.39 60.9589 1.19149 31.0753 37.814 26.9536C37.814 26.9536 33.2361 0.84847 64.9287 9.77917C64.9287 9.77917 88.522 -14.9519 107.537 14.2445C107.537 14.2445 162.397 -3.70408 142.751 45.502C126.924 85.145 102.255 109.734 102.255 109.734Z" fill="#A073B5"/>
<path d="M142.75 45.5016C126.923 85.1452 102.254 109.733 102.254 109.733C81.4646 120.551 27.5233 109.983 9.77173 93.6979C31.7075 107.785 80.6416 115.975 100.463 106.007C100.463 106.007 125.985 81.4194 142.358 41.7758C145.376 34.4732 146.695 28.6506 146.751 24.027C147.543 29.1211 146.511 36.0817 142.75 45.5016Z" fill="#7D5593"/>
<path d="M146.754 24.037C137.521 12.1176 110.314 21.019 110.314 21.019C91.2987 -8.17856 67.7066 16.5547 67.7066 16.5547C36.0133 7.62259 40.5935 33.7275 40.5935 33.7275C3.96921 37.8498 20.1683 67.7314 20.1683 67.7314C10.4697 66.9863 0.774527 74.5363 3.13591 85.6767C-5.72234 70.9627 5.83411 60.0662 17.3904 60.957C17.3904 60.957 1.19129 31.0754 37.8156 26.9531C37.8156 26.9531 33.2353 0.848169 64.9287 9.78024C64.9287 9.78024 88.5208 -14.953 107.536 14.2446C107.536 14.2446 143.414 2.50819 146.754 24.037Z" fill="#B98CD3"/>
<path d="M100.212 94.2387C101.71 88.2952 102.95 82.2674 103.913 76.1827C104.84 70.094 105.615 63.9702 106.154 57.8193C106.696 51.6694 107.089 45.5006 107.324 39.3228C107.55 33.145 107.655 26.9582 107.537 20.7708C107.944 26.9474 108.129 33.1397 108.192 39.3344C108.246 45.5297 108.142 51.7293 107.886 57.9287C107.634 64.1289 107.144 70.3234 106.495 76.512C105.81 82.6983 104.842 88.8641 103.595 95.0026L100.212 94.2387Z" fill="#563070"/>
<path d="M92.9659 92.3069C90.081 86.4386 87.4657 80.4735 85.0935 74.4279C82.7599 68.3691 80.5767 62.2657 78.5982 56.1034C76.6224 49.9407 74.7843 43.7419 73.0891 37.5087C71.4011 31.2741 69.8243 25.0121 68.4501 18.71C70.1058 24.9467 71.9606 31.129 73.9232 37.274C75.893 43.4173 78.0021 49.5145 80.2427 55.5598C82.4859 61.6047 84.927 67.5725 87.5062 73.4709C90.1229 79.3541 92.9685 85.1262 96.0508 90.7516L92.9659 92.3069Z" fill="#563070"/>
<path d="M75.756 92.8021C73.6421 90.8726 71.6288 88.8573 69.7105 86.769C67.8134 84.6632 65.9884 82.5057 64.2569 80.2844C60.7989 75.8385 57.6522 71.1931 54.7432 66.4245C51.8382 61.653 49.1613 56.7625 46.692 51.7807C44.2278 46.7976 41.9272 41.739 39.927 36.5714C42.1944 41.631 44.7522 46.5579 47.4633 51.3924C50.1792 56.2248 53.0919 60.9466 56.2123 65.5224C59.3363 70.0947 62.6789 74.5163 66.289 78.6957C68.0961 80.7836 69.9845 82.7956 71.9288 84.7439C73.8925 86.6734 75.933 88.5154 78.0469 90.257L75.756 92.8021Z" fill="#563070"/>
<path d="M67.7152 104.916L64.259 103.103C63.6866 102.796 63.1021 102.51 62.5408 102.186L60.87 101.193L59.201 100.201C58.6499 99.8628 58.0778 99.5575 57.5469 99.1898L54.3164 97.0595C50.073 94.1395 45.9524 91.068 42.0685 87.7376C38.1652 84.4321 34.4086 80.9753 30.8157 77.3701C29.9276 76.4587 29.0301 75.5577 28.1517 74.6391C27.2852 73.709 26.3989 72.7986 25.5503 71.8538C23.8332 69.9832 22.1614 68.0728 20.5592 66.1113C22.2719 67.9819 24.0478 69.7939 25.866 71.5633C26.765 72.4572 27.7007 73.316 28.6156 74.1933C29.5423 75.0593 30.4873 75.9065 31.4213 76.7633C35.1988 80.1499 39.1227 83.3726 43.1674 86.4263C47.1934 89.5056 51.4271 92.3054 55.7426 94.9336L59.0176 96.8411C59.5555 97.1714 60.1305 97.4373 60.6856 97.7368L62.3633 98.6117L64.0391 99.4862C64.601 99.7703 65.1827 100.015 65.7528 100.281L69.1851 101.847L67.7152 104.916Z" fill="#563070"/>
<path d="M117.457 93.6926C124.26 87.0573 124.26 76.2994 117.457 69.6641C110.655 63.0288 99.6263 63.0288 92.8239 69.6641C86.0215 76.2994 86.0215 87.0573 92.8239 93.6926C99.6262 100.328 110.655 100.328 117.457 93.6926Z" fill="#FAFAFA"/>
<path d="M118.015 80.3673C119.822 75.0202 116.843 69.2564 111.361 67.4936C105.88 65.7307 99.9707 68.6363 98.1634 73.9835C96.3562 79.3306 99.335 85.0944 104.817 86.8572C110.299 88.6201 116.208 85.7145 118.015 80.3673Z" fill="black"/>
<path d="M112.276 75.2401C114.246 74.6108 115.32 72.543 114.675 70.6215C114.03 68.7 111.91 67.6524 109.94 68.2817C107.97 68.9109 106.896 70.9787 107.541 72.9002C108.186 74.8217 110.306 75.8693 112.276 75.2401Z" fill="#FAFAFA"/>
<path d="M74.6052 111.236C81.4075 104.601 81.4075 93.8429 74.6052 87.2076C67.8028 80.5723 56.774 80.5723 49.9716 87.2076C43.1692 93.8429 43.1692 104.601 49.9716 111.236C56.774 117.871 67.8028 117.871 74.6052 111.236Z" fill="#FAFAFA"/>
<path d="M75.6294 95.9823C76.3463 90.3953 72.2843 85.2993 66.5566 84.6C60.8289 83.9007 55.6046 87.8629 54.8877 93.4499C54.1708 99.0369 58.2328 104.133 63.9605 104.832C69.6882 105.531 74.9125 101.569 75.6294 95.9823Z" fill="black"/>
<path d="M69.1928 92.8393C71.2033 92.3468 72.4238 90.3577 71.9189 88.3965C71.4139 86.4354 69.3747 85.2448 67.3642 85.7374C65.3536 86.23 64.1331 88.2191 64.6381 90.1802C65.143 92.1414 67.1823 93.3319 69.1928 92.8393Z" fill="#FAFAFA"/>
</svg>
