<svg width="135" height="143" viewBox="0 0 135 143" fill="none" xmlns="http://www.w3.org/2000/svg">
<path d="M41.293 73.9529C41.293 73.9529 32.2808 70.5114 28.6362 71.656C24.9916 72.8007 13.3816 82.7911 15.7144 84.9546C18.8857 87.8958 26.5258 76.6016 31.1447 76.95C33.6306 77.1375 44.502 80.4415 44.502 80.4415L41.293 73.9529Z" fill="#B21511"/>
<path d="M48.0956 66.755C48.0956 66.755 41.3676 59.8396 37.5799 59.3442C33.7922 58.8487 19.0576 63.0247 20.2638 65.9694C21.9033 69.9724 33.585 62.9424 37.6285 65.2026C39.8046 66.419 48.2773 73.9922 48.2773 73.9922L48.0956 66.755Z" fill="#B21511"/>
<path d="M103.8 84.6395C103.8 84.6395 112.812 84.5458 115.634 86.7921C118.456 89.0385 125.389 101.908 122.643 103.078C118.911 104.67 115.88 91.9501 111.72 90.7234C109.481 90.0631 98.8851 89.413 98.8851 89.413L103.8 84.6395Z" fill="#B21511"/>
<path d="M95.4197 91.8336C95.4197 91.8336 105.066 91.7361 108.086 94.0753C111.107 96.4146 118.527 109.816 115.589 111.034C111.594 112.691 108.349 99.4462 103.896 98.1688C101.5 97.4813 90.158 96.8044 90.158 96.8044L95.4197 91.8336Z" fill="#B21511"/>
<path d="M49.3327 46.0242C49.3327 46.0242 29.7481 72.3403 49.3327 93.393C68.9173 114.446 103.409 97.1942 106.04 83.1589C108.671 69.1237 80.3172 53.0417 80.3172 53.0417L49.3327 46.0242Z" fill="#EC3D2D"/>
<path d="M131.117 13.6817C130.033 15.8384 128.718 17.7702 127.28 19.0246C121.922 23.7042 111.401 6.15894 111.401 6.15894C111.401 6.15894 111.456 4.95945 112.879 3.90417C114.116 2.98743 116.39 2.17689 120.558 2.35861C129.523 2.74785 129.621 -0.273732 132.933 0.0201687C135.357 0.233668 134.077 7.80256 131.117 13.6817Z" fill="#F0882E"/>
<path d="M131.117 13.6816C130.206 15.4953 129.131 17.1503 127.955 18.3759C128.788 17.3149 129.554 16.0519 130.232 14.7054C133.192 8.82632 134.472 1.25741 132.048 1.04391C128.736 0.749734 128.638 3.77159 119.673 3.38235C115.505 3.20063 113.231 4.0109 111.995 4.92791C111.917 4.9855 111.845 5.04309 111.775 5.10094C111.992 4.7318 112.334 4.30806 112.879 3.90442C114.116 2.98767 116.39 2.17714 120.558 2.35886C129.523 2.7481 129.621 -0.273488 132.933 0.0204129C135.357 0.23364 134.077 7.80254 131.117 13.6816Z" fill="#FFAA71"/>
<path d="M131.117 13.6817C130.033 15.8384 128.718 17.7702 127.28 19.0246C121.922 23.7042 111.401 6.15896 111.401 6.15896C111.401 6.15896 111.456 4.95946 112.879 3.90419C118.272 3.73714 125.931 5.25363 131.117 13.6817Z" fill="#D36411"/>
<path d="M126.946 36.7605C125.77 39.0789 124.158 41.1001 122.118 42.6138C110.034 51.5811 86.0665 23.7045 86.0665 23.7045C86.0665 23.7045 86.8621 21.0374 88.9462 17.7849C92.3274 12.5053 99.107 5.67766 111.401 6.15926C127.917 6.8079 132.728 25.3625 126.946 36.7605Z" fill="#F0882E"/>
<path d="M127.355 17.0034C124.392 13.284 119.956 10.7177 113.995 10.4841C101.701 10.0025 94.9214 16.8304 91.5402 22.1098C90.2631 24.0992 89.4705 25.8726 89.0496 26.9453C87.1817 25.0018 86.0662 23.7045 86.0662 23.7045C86.0662 23.7045 86.8618 21.0374 88.9459 17.7849C92.3271 12.5053 99.1067 5.67766 111.4 6.15926C119.466 6.47625 124.741 11.0638 127.355 17.0034Z" fill="#FC9651"/>
<path d="M126.946 36.7605C125.77 39.0788 124.158 41.1 122.118 42.6138C110.034 51.581 86.0665 23.7044 86.0665 23.7044C86.0665 23.7044 86.8621 21.0373 88.9462 17.7848C97.1237 16.741 120.325 15.7637 126.946 36.7605Z" fill="#D36411"/>
<path d="M124.017 54.1759C123.608 55.776 123.071 57.434 122.406 59.1469L63.0702 38.8596C63.0702 38.8596 63.1077 37.2795 63.811 35.0652C65.5086 29.7253 71.0863 20.6972 89.3784 21.3171C113.404 22.13 129.352 33.3464 124.017 54.1759Z" fill="#F0882E"/>
<path d="M120.996 33.7761C114.698 28.0325 104.535 24.9039 92.2611 24.4886C73.969 23.8687 68.3913 32.8966 66.6936 38.2368C66.4949 38.8653 66.3477 39.442 66.241 39.9437L63.0702 38.8596C63.0702 38.8596 63.1077 37.2795 63.811 35.0652C65.5086 29.7253 71.0863 20.6972 89.3784 21.3171C103.751 21.8041 115.231 26.0111 120.996 33.7761Z" fill="#FC9651"/>
<path d="M124.017 54.1759C123.608 55.7761 123.071 57.4341 122.406 59.147L63.0702 38.8597C63.0702 38.8597 63.1077 37.2796 63.811 35.0653C78.4454 35.2324 109.302 37.6515 124.017 54.1759Z" fill="#D36411"/>
<path d="M106.039 83.1599C103.41 97.1932 68.916 114.445 49.3325 93.3929C44.0374 87.7012 41.6074 81.6287 40.8783 75.7928C42.2156 78.5205 44.0491 81.228 46.4905 83.8517C66.074 104.903 100.566 87.652 103.197 73.6187C103.246 73.3506 103.287 73.0825 103.313 72.8114C105.486 76.2081 106.679 79.7431 106.039 83.1599Z" fill="#DD241B"/>
<path d="M81.3718 94.2693C79.8729 97.8088 79.7317 101.517 80.0722 104.638C80.5482 108.983 81.9591 112.179 81.9591 112.179L99.3016 110.941C99.552 110.173 99.7301 109.409 99.8409 108.648C101.495 97.3694 88.5633 87.5038 88.5633 87.5038C88.5633 87.5038 84.9553 85.8108 81.3718 94.2693Z" fill="#EC3D2D"/>
<path d="M80.0722 104.638C80.5482 108.982 81.9591 112.179 81.9591 112.179L99.3016 110.941C99.552 110.172 99.7301 109.409 99.8409 108.648C96.7367 105.651 87.214 97.6724 80.0722 104.638Z" fill="#DD241B"/>
<path d="M91.998 105.84C80.6273 99.8556 70.586 128.975 92.1224 132.824C92.1224 132.824 82.358 120.813 89.1452 114.378C92.8048 110.908 102.069 143 102.069 143C102.069 143 119.79 120.468 91.998 105.84Z" fill="#EC3D2D"/>
<path d="M102.073 142.993C102.257 142.606 114.205 117.51 89.2516 105.045C90.148 105.097 91.0704 105.353 91.9985 105.841C119.546 120.341 102.375 142.604 102.073 142.993Z" fill="#FF5148"/>
<path d="M50.691 86.905C48.9284 90.321 46.1682 92.8007 43.5513 94.534C39.9078 96.9452 36.5483 97.9038 36.5483 97.9038L26.4122 83.7726C26.8429 83.0889 27.3159 82.4634 27.8297 81.8921C35.4418 73.4084 51.2932 77.0482 51.2932 77.0482C51.2932 77.0482 54.9017 78.741 50.691 86.905Z" fill="#EC3D2D"/>
<path d="M43.551 94.5338C39.9075 96.945 36.548 97.9036 36.548 97.9036L26.4119 83.7724C26.8426 83.0888 27.3156 82.4632 27.8294 81.892C32.1186 82.3638 44.3399 84.5873 43.551 94.5338Z" fill="#DD241B"/>
<path d="M35.003 86.1293C46.8731 91.049 30.9098 117.39 14.1818 103.285C14.1818 103.285 29.6566 103.117 30.264 93.7821C30.5915 88.7489 0 102.14 0 102.14C0 102.14 5.99074 74.1046 35.003 86.1293Z" fill="#EC3D2D"/>
<path d="M0.00299072 102.133C0.182208 101.744 11.8348 76.5089 37.3703 87.7331C36.7571 87.0769 35.9702 86.5314 35.0021 86.1292C6.24354 74.211 0.10862 101.652 0.00299072 102.133Z" fill="#FF5148"/>
<path d="M50.5019 70.7691C50.5019 70.7691 21.8558 33.1584 63.071 38.8602C104.286 44.5619 132.012 52.0892 124.455 79.2113C115.589 111.034 58.3943 78.4333 50.5019 70.7691Z" fill="#F0882E"/>
<path d="M125.398 67.2233C117.713 54.8045 94.0799 48.2677 63.174 42.0975C52.2178 39.9119 45.7668 40.7075 42.2471 43.1296C44.7434 39.2975 50.8197 37.1639 63.0699 38.8594C97.4321 43.6142 122.417 49.6346 125.398 67.2233Z" fill="#FC9651"/>
<path d="M124.455 79.2127C115.589 111.034 58.3948 78.4342 50.5028 70.7702C50.5028 70.7702 36.324 52.1551 42.2705 43.1012C44.4295 51.6474 51.3185 60.6926 51.3185 60.6926C59.2105 68.3566 116.407 100.956 125.274 69.1351C125.366 68.8064 125.453 68.4777 125.533 68.1548C125.937 71.4303 125.602 75.0951 124.455 79.2127Z" fill="#D36411"/>
<path d="M101.441 89.9318C107.789 83.5822 107.789 73.2874 101.441 66.9378C95.0935 60.5882 84.802 60.5882 78.4544 66.9378C72.1069 73.2874 72.1068 83.5822 78.4544 89.9318C84.802 96.2814 95.0935 96.2814 101.441 89.9318Z" fill="#FAFAFA"/>
<path d="M101.569 78.2159C103.837 73.3286 101.714 67.5278 96.8287 65.2596C91.943 62.9913 86.1441 65.1144 83.8766 70.0017C81.609 74.889 83.7315 80.6898 88.6172 82.958C93.5029 85.2263 99.3018 83.1031 101.569 78.2159Z" fill="black"/>
<path d="M99.0342 68.9321C99.0361 70.8669 97.4696 72.4371 95.5351 72.4388C93.601 72.4407 92.0312 70.8734 92.0295 68.9386C92.0279 67.0038 93.5944 65.4335 95.5286 65.4319C97.4628 65.4303 99.0323 66.9973 99.0342 68.9321Z" fill="#FAFAFA"/>
<path d="M64.3699 75.3175C69.1475 67.7152 66.8595 57.6782 59.2596 52.8991C51.6598 48.1201 41.6259 50.4088 36.8484 58.0111C32.0709 65.6134 34.3588 75.6504 41.9587 80.4295C49.5586 85.2085 59.5924 82.9198 64.3699 75.3175Z" fill="#FAFAFA"/>
<path d="M60.2594 69.241C64.0679 65.4313 64.0679 59.2545 60.2594 55.4448C56.4509 51.6351 50.2761 51.6351 46.4676 55.4448C42.659 59.2545 42.6591 65.4313 46.4676 69.241C50.2761 73.0507 56.4509 73.0508 60.2594 69.241Z" fill="black"/>
<path d="M59.6792 57.3417C59.7995 55.4105 58.332 53.7474 56.4014 53.627C54.4708 53.5067 52.8082 54.9747 52.6879 56.9059C52.5676 58.8371 54.0351 60.5003 55.9657 60.6206C57.8963 60.741 59.5589 59.273 59.6792 57.3417Z" fill="#FAFAFA"/>
</svg>
