<svg width="111" height="119" viewBox="0 0 111 119" fill="none" xmlns="http://www.w3.org/2000/svg">
<path d="M55.3613 110.167L38.6003 101.298L24.6388 93.9165L14.0354 88.31L12.1613 87.3167L12.876 83.8601L21.3021 43.0086L21.8912 40.1421L22.5511 36.9446L33.2913 41.3673L55.4735 50.4951L69.8628 56.4178L68.9473 59.8184L68.0135 63.2775L55.3613 110.167Z" fill="#31D4D3"/>
<path opacity="0.16" d="M55.3613 110.167L38.6003 101.298L24.6388 93.9165L14.0354 88.3101L12.1613 87.3167L12.876 83.8602L15.2004 85.1603L42.372 97.983L56.1473 55.1857L55.846 54.7711L68.9473 59.8184L68.0135 63.2775L55.3613 110.167Z" fill="#12605E"/>
<path d="M24.7321 44.6973L14.0354 88.3101L12.1613 87.3168L21.3022 43.0086L21.8912 40.1422L68.0135 63.2775L24.7321 44.6973Z" fill="#86E7F7"/>
<path d="M98.5719 52.2493L97.8787 54.2937L96.5383 58.2556L82.3592 100.08L74.544 102.999L70.3468 104.565L65.8937 106.23L55.3612 110.167L67.4509 65.3561L68.0135 63.2775L69.3221 58.4262L69.8628 56.4178L71.046 56.2462L79.3693 55.0386L91.9828 53.2062L98.5719 52.2493Z" fill="#297F80"/>
<path opacity="0.43" d="M97.8788 54.2938L96.5384 58.2557L82.3593 100.08L74.5441 102.999L70.3468 104.565L86.2031 65.1939L67.451 65.3562L68.0135 63.2775L69.3222 58.4262L97.8788 54.2938Z" fill="#074149"/>
<path d="M68.9338 63.8075L21.2063 40.8794L18.9659 39.8044L21.0587 25.22L23.9112 26.4531L73.0479 47.739L68.9338 63.8075Z" fill="#20A5C4"/>
<path d="M104.739 44.6129L100.905 56.1652L70.522 63.4279L68.9338 63.8075L73.0479 47.739L73.9884 47.6461L104.739 44.6129Z" fill="#036991"/>
<path d="M104.737 44.6187L102.692 44.8176L94.353 45.6416L81.5107 46.9086L73.0479 47.739L58.5622 41.4653L35.2098 31.3511L23.9112 26.4531L23.9053 26.4513L21.0528 25.2181L38.1604 24.9557L38.1663 24.9575L47.4963 24.8075L47.5021 24.8093L58.1912 24.645L68.5126 29.0725L68.5185 29.0743L80.3287 34.1441L104.737 44.6187Z" fill="#3DBDD3"/>
<path d="M104.737 44.6187L102.692 44.8176L56.824 25.7802L23.9112 26.4531L23.9053 26.4513L21.0528 25.2181L38.1604 24.9557L38.1663 24.9575L47.4963 24.8075L47.5021 24.8093L58.1912 24.645L68.5126 29.0725L68.5185 29.0743L80.3287 34.1441L104.737 44.6187Z" fill="#86E7F7"/>
<path d="M80.3287 34.1442L73.5899 36.4092L65.9614 38.9755L58.5622 41.4653L58.462 41.4984L55.4735 50.4951L53.3437 56.9145L38.6003 101.298L24.6388 93.9165L32.237 47.755L33.2912 41.3673L34.9348 31.3684L35.2098 31.3512L48.9779 30.4104L58.6136 29.7519L68.5126 29.0725L68.5184 29.0743L72.9259 30.9641L74.2621 31.5398L80.3287 34.1442Z" fill="#C0CCDA"/>
<path d="M94.5956 45.7491L91.9828 53.2062L89.7313 59.6456L74.544 102.999L65.8937 106.23L77.4959 62.1412L79.3693 55.0386L81.5107 46.9087L81.5285 46.8307L65.9614 38.9755L48.9779 30.4104L38.1662 24.9575L42.4386 24.8857L47.4962 24.8075L47.5021 24.8093L58.6136 29.7519L73.5899 36.4092L94.3529 45.6416L94.5956 45.7491Z" fill="#9BB2C9"/>
<path opacity="0.43" d="M83.8767 45.4309L81.1391 46.0985L40.3738 25.4606L42.4387 24.8857L83.8767 45.4309Z" fill="#F3F9FF"/>
<path d="M94.5956 45.7491L91.9829 53.2062L89.7313 59.6456L74.5441 102.999L65.8937 106.23L73.6526 97.9969L88.5632 46.237L42.4387 24.8857L47.4963 24.8075L47.5021 24.8093L58.6136 29.7519L73.5899 36.4092L94.353 45.6416L94.5956 45.7491Z" fill="#798EB2"/>
<path opacity="0.43" d="M29.5883 94.1449L38.6003 101.298L24.6388 93.9165L32.237 47.755L33.2912 41.3673L34.9348 31.3684L35.2098 31.3512L48.9779 30.4104L58.6136 29.7519L68.5126 29.0725L68.5184 29.0743L74.2621 31.5398L42.099 34.2625L29.5883 94.1449Z" fill="#F3F9FF"/>
<path opacity="0.74" d="M80.3287 34.1442L73.5899 36.4092L65.9615 38.9755L58.5622 41.4654L58.462 41.4985L55.4735 50.4951L53.3437 56.9146L38.6003 101.298L34.4112 97.5698L49.8939 37.7507L74.5363 32.1451L72.926 30.9641L74.2622 31.5398L80.3287 34.1442Z" fill="#547E9B"/>
<path opacity="0.43" d="M84.2616 47.4483C84.2616 47.4483 70.9705 99.9838 70.079 101.224C69.1876 102.465 67.2735 104.147 67.2735 104.147C67.2735 104.147 81.8908 47.3446 82.3802 46.9908C82.8698 46.6364 84.2616 47.4483 84.2616 47.4483Z" fill="#F3F9FF"/>
<path d="M21.2063 40.8794L18.9659 39.8044L21.0587 25.22L23.9112 26.4531L21.2063 40.8794Z" fill="#86E7F7"/>
<path d="M64.5204 31.1658C64.5204 31.1658 70.9057 24.3053 74.3951 22.4191C77.8844 20.5329 78.948 21.6737 78.948 21.6737C78.948 21.6737 80.8665 23.7555 80.9148 25.1207C80.9631 26.4858 79.5527 27.3302 79.5527 27.3302C79.5527 27.3302 79.6577 25.4721 78.4686 25.1707C77.2798 24.8686 66.0886 33.0713 66.0886 33.0713L64.5204 31.1658Z" fill="#7B94A8"/>
<path d="M62.3207 31.2924C62.3207 31.2924 63.1741 26.1564 62.0452 19.7964C60.9157 13.4363 56.5512 16.4012 56.5512 16.4012C56.5512 16.4012 58.43 12.5289 62.5951 14.769C66.7604 17.0085 65.0452 31.8695 65.0452 31.8695L62.3207 31.2924Z" fill="#7B94A8"/>
<path d="M64.8033 37.6205C64.7759 37.6055 64.7408 37.5946 64.7115 37.5855C62.8417 36.8054 61.0992 36.4629 59.1326 35.4986C57.1327 34.5176 57.7465 32.7695 59.2519 30.7143C59.418 30.4898 59.579 30.3023 59.7448 30.1612C61.0472 28.9866 62.3377 30.2672 64.8936 31.3184C64.8936 31.3184 66.1206 31.7703 67.3677 32.1578C68.6147 32.5454 68.1184 33.688 67.8021 35.3873C67.4917 37.0885 66.7145 38.4327 64.8033 37.6205Z" fill="#C0CCDA"/>
<path d="M46.4864 24.6298C47.2839 23.1339 50.0684 22.524 52.9043 24.7464C55.7401 26.9689 58.9806 30.4573 58.9806 30.4573L62.2885 29.8758C62.2885 29.8758 59.2058 22.8823 54.3487 20.0984C49.4917 17.3146 47.6698 18.8946 47.6698 18.8946C47.6698 18.8946 45.2153 19.9423 45.6682 22.7654C46.1215 25.5892 46.4864 24.6298 46.4864 24.6298Z" fill="#7B94A8"/>
<path d="M60.0948 30.6359C60.0948 30.6359 57.1834 24.1425 57.2474 18.2887C57.3114 12.4349 62.5038 15.061 62.5038 15.061C62.5038 15.061 61.4359 13.7167 58.5717 14.2441C55.707 14.7714 54.395 14.4317 53.6679 16.7712C52.9409 19.1107 52.2387 22.6739 54.6452 26.662C57.0516 30.6506 58.3973 33.1419 58.3973 33.1419L60.0948 30.6359Z" fill="#C0CCDA"/>
<path d="M58.818 31.2676C58.818 31.2676 52.0243 28.1439 48.4692 24.8107C44.9141 21.4775 47.3525 19.0625 47.3525 19.0625C47.3525 19.0625 43.1069 21.8615 44.6678 26.3976C46.2287 30.9338 58.4349 34.4568 58.4349 34.4568L58.818 31.2676Z" fill="#C0CCDA"/>
<path d="M84.0388 35.2619C81.1692 32.5468 71.914 31.696 71.914 31.696L70.9021 34.0825C70.9021 34.0825 78.8363 36.1431 80.3878 37.2326C81.9398 38.3223 81.0217 39.3203 81.0217 39.3203C81.0217 39.3203 82.7523 39.1827 83.8424 37.6314C84.932 36.0794 84.0388 35.2619 84.0388 35.2619Z" fill="#7B94A8"/>
<path d="M65.5415 33.0946C65.5415 33.0946 74.981 29.696 77.6026 26.6561C80.2242 23.6162 78.8988 21.6218 78.8988 21.6218C78.8988 21.6218 81.1084 22.928 81.6239 25.1529C82.1394 27.3778 81.293 29.4549 78.6051 32.0613C75.9174 34.6672 65.3783 36.2102 65.3783 36.2102L65.5415 33.0946Z" fill="#C0CCDA"/>
<path d="M66.94 33.7962C66.94 33.7962 77.6997 37.4103 80.9694 37.751C84.2392 38.0918 84.0388 35.2618 84.0388 35.2618C84.0388 35.2618 85.3762 36.8254 83.8884 39.8735C82.401 42.9224 77.7151 42.1409 73.8387 40.0586C69.9623 37.9763 65.3784 36.214 65.3784 36.214L66.94 33.7962Z" fill="#C0CCDA"/>
<path d="M62.4592 30.9252C62.4592 30.9252 68.1116 14.2697 68.404 13.3289C68.6964 12.3881 70.4058 12.7607 71.7862 13.4279C73.1659 14.0948 73.3156 14.3795 72.7263 16.0216C72.1365 17.6635 65.7989 32.4394 65.7989 32.4394L62.4592 30.9252Z" fill="#C0CCDA"/>
<path d="M45.0537 23.034C44.6611 25.159 44.775 25.9969 46.7043 27.8805C48.6337 29.7641 57.5969 33.4594 57.5969 33.4594C57.5969 33.4594 49.7006 29.7747 47.0628 27.2434C44.4252 24.7114 45.0537 23.034 45.0537 23.034Z" fill="#EBF1F7"/>
<path d="M58.297 31.376C58.297 31.376 54.9051 25.9351 54.1569 20.9409C53.4087 15.9466 56.7773 14.7464 56.7773 14.7464C56.7773 14.7464 54.8207 14.6732 53.8047 17.9424C52.789 21.211 53.6241 23.3433 54.4499 24.9912C55.2752 26.6388 58.297 31.376 58.297 31.376Z" fill="#EBF1F7"/>
<path d="M63.2427 30.6127C63.2427 30.6127 68.6497 15.2799 69.2055 14.0081C69.7612 12.7363 71.0853 13.4688 71.0853 13.4688C71.0853 13.4688 69.4926 12.2246 68.7147 13.6951C67.9361 15.1653 63.2427 30.6127 63.2427 30.6127Z" fill="#EBF1F7"/>
<path d="M79.444 22.3793C79.444 22.3793 80.1774 23.463 78.8673 25.7844C77.5572 28.1057 71.1169 31.6146 68.2898 32.4483C68.2898 32.4483 76.8263 30.2861 79.0455 26.589C81.2641 22.8916 79.444 22.3793 79.444 22.3793Z" fill="#EBF1F7"/>
<path d="M68.4972 34.7064C68.4972 34.7064 77.313 39.5307 81.0218 39.3203C84.7307 39.1093 84.3027 36.355 84.3027 36.355C84.3027 36.355 84.946 38.5881 80.9419 38.7344C76.9371 38.881 68.4972 34.7064 68.4972 34.7064Z" fill="#EBF1F7"/>
<path d="M64.8033 37.6205C64.7758 37.6055 64.7407 37.5946 64.7114 37.5855C65.2049 37.4436 65.5898 36.8249 65.8846 35.8764C66.2339 34.7523 66.089 33.0702 64.9996 32.7124C63.9062 32.3469 63.0296 32.1515 61.4314 31.2825C60.5646 30.8077 60.1232 30.3687 59.7447 30.1612C61.0471 28.9866 62.3376 30.2672 64.8936 31.3184C64.8936 31.3184 66.1206 31.7703 67.3676 32.1578C68.6146 32.5454 68.1183 33.688 67.8021 35.3873C67.4917 37.0885 66.7144 38.4327 64.8033 37.6205Z" fill="#7B94A8"/>
<path d="M59.1689 31.326C58.4585 32.924 58.0694 33.6595 58.8112 34.3715C59.5529 35.0835 63.8649 36.5308 63.8649 36.5308C63.8649 36.5308 60.4582 35.0978 59.7165 34.3858C58.9747 33.6738 59.1689 31.326 59.1689 31.326Z" fill="#EBF1F7"/>
</svg>